<svg id="Component_35_43" data-name="Component 35 – 43" xmlns="http://www.w3.org/2000/svg" width="130" height="136.032" viewBox="0 0 130 136.032">
  <g id="Rectangle_100" data-name="Rectangle 100" fill="#fff" stroke="#707070" stroke-width="1">
    <rect width="130" height="136.032" rx="8" stroke="none"/>
    <rect x="0.5" y="0.5" width="129" height="135.032" rx="7.5" fill="none"/>
  </g>
  <g id="Group_125" data-name="Group 125">
    <rect id="Rectangle_101" data-name="Rectangle 101" width="113" height="17" transform="translate(8 111)" fill="#363636"/>
    <text id="_Stage_2" data-name=" Stage 2" transform="translate(13 111)" fill="#fff" font-size="12" font-family="Novecentosans-Medium, Novecento sans" font-weight="500"><tspan x="31.078" y="12" xml:space="preserve"> Stage 2</tspan></text>
    <g id="Group_103" data-name="Group 103" transform="translate(26 35.3)">
      <g id="Group_106" data-name="Group 106" transform="translate(10.821)">
        <g id="Group_105" data-name="Group 105">
          <g id="Group_104" data-name="Group 104">
            <g id="Group_103-2" data-name="Group 103">
              <path id="Path_596" data-name="Path 596" d="M88.488,41.8c14.821-1.022,29.731-9.957,29.731-20.849C118.219,9.376,101.37,0,85.668,0,69.983,0,61.4,9.376,61.4,20.955a23.157,23.157,0,0,0,.247,3.331,1.415,1.415,0,0,0,.37.9,1.692,1.692,0,0,0,.987.123,16.349,16.349,0,0,0,7.613-1.886c2.009-1.093,20.849-12.248,20.849-12.248l-2.062-.74,10.01-1.181S78.654,25.219,73.507,29.238a29.325,29.325,0,0,1-7.1,3.7c-.317.123-.441.229-.511.405a.75.75,0,0,0,.176.775,19.935,19.935,0,0,0,4.441,3.842,1.319,1.319,0,0,0,.987.282c.194-.088.247-.546.335-1.04a12.011,12.011,0,0,1,4.23-7.155c3.6-2.961,25.449-20.6,25.449-20.6l4.124,6.309-3.542-1.269s-11.4,13.746-13.218,15.9c-3.507,4.177-3.049,7.984-2.168,10.292a2,2,0,0,0,.6.864A2.1,2.1,0,0,0,88.488,41.8Z" transform="translate(-61.4)" fill="#0075c1"/>
            </g>
          </g>
        </g>
      </g>
      <g id="Group_107" data-name="Group 107" transform="translate(0 49.417)">
        <path id="Path_597" data-name="Path 597" d="M7.384,281.664a6.357,6.357,0,0,0-2.115-.264H1.586c-.035,0-.07.018-.07.053L0,288.925a.065.065,0,0,0,.018.053A.065.065,0,0,0,.07,289H3.489a6.442,6.442,0,0,0,3.014-.617,4.605,4.605,0,0,0,1.833-1.8,4.653,4.653,0,0,0,.652-2.555,2.785,2.785,0,0,0-.458-1.551A2.612,2.612,0,0,0,7.384,281.664Zm-4.124.9h.493a5.159,5.159,0,0,1,2.414.388,1.43,1.43,0,0,1,.687,1.251,3.674,3.674,0,0,1-.441,1.85,3.411,3.411,0,0,1-1.251,1.339,3.917,3.917,0,0,1-1.991.458H2.2Z" transform="translate(0 -281.224)"/>
        <path id="Path_598" data-name="Path 598" d="M65.037,280.682a14.07,14.07,0,0,0-2.626-.282,6.14,6.14,0,0,0-3.049.7,5.437,5.437,0,0,0-1.991,1.9,4.345,4.345,0,0,0-.687,2.5,2.692,2.692,0,0,0,1.022,2.1,4.248,4.248,0,0,0,2.679.775,17.308,17.308,0,0,0,3.366-.405.056.056,0,0,0,.053-.053l.634-3.137a.062.062,0,0,0-.07-.07h-1.8c-.035,0-.07.018-.07.053l-.476,2.326a3.924,3.924,0,0,1-.987.141,2.578,2.578,0,0,1-1.657-.493,1.805,1.805,0,0,1-.617-1.375,3.768,3.768,0,0,1,.458-1.886,3.68,3.68,0,0,1,1.251-1.428,3.339,3.339,0,0,1,1.8-.476c.229,0,.458.018.687.035.229.035.476.07.74.123a10.77,10.77,0,0,1,1.057.3h.053c.018-.018.035-.035.035-.053l.229-1.2a.065.065,0,0,0-.018-.053C65.072,280.7,65.055,280.682,65.037,280.682Z" transform="translate(-46.691 -280.4)"/>
        <path id="Path_599" data-name="Path 599" d="M133.359,281.435a.092.092,0,0,0-.07-.035h-1.463c-.018,0-.053.018-.053.035L128.3,287l-1.357-5.551c0-.035-.035-.053-.07-.053h-1.9c-.018,0-.035.018-.053.035a.065.065,0,0,0-.018.053l1.815,7.472c0,.035.035.053.07.053h1.868c.018,0,.053-.018.053-.035l4.635-7.472A.044.044,0,0,0,133.359,281.435Z" transform="translate(-102.888 -281.224)"/>
        <path id="Path_600" data-name="Path 600" d="M173.916,295.683a8.285,8.285,0,0,1-1.6.617,5.745,5.745,0,0,1-1.234.194,1.59,1.59,0,0,1-.811-.211.9.9,0,0,1-.388-.74,7.047,7.047,0,0,0,2.168-.441,3.549,3.549,0,0,0,1.428-.952,1.774,1.774,0,0,0,.458-1.2,1.18,1.18,0,0,0-.493-.916,2.144,2.144,0,0,0-1.287-.335,4.159,4.159,0,0,0-2.044.529,4.211,4.211,0,0,0-1.551,1.5,3.573,3.573,0,0,0-.564,1.956,1.89,1.89,0,0,0,.3.952,1.976,1.976,0,0,0,.9.723,3.415,3.415,0,0,0,1.375.247,9.251,9.251,0,0,0,1.41-.141,8.172,8.172,0,0,0,1.762-.511c.018-.018.035-.035.035-.053l.229-1.163c0-.035,0-.053-.018-.07A.106.106,0,0,0,173.916,295.683Zm-2.326-2.855a.514.514,0,0,1,.388.123.4.4,0,0,1,.141.3c.018.264-.176.546-.529.811a2.842,2.842,0,0,1-1.621.405,2.4,2.4,0,0,1,.687-1.2A1.494,1.494,0,0,1,171.59,292.828Z" transform="translate(-138.387 -289.709)"/>
        <path id="Path_601" data-name="Path 601" d="M213.322,291.6a2.683,2.683,0,0,0-1.692.67,6.64,6.64,0,0,0-1.287,1.463l.388-1.921a.062.062,0,0,0-.07-.07H208.9c-.035,0-.07.018-.07.053l-1.128,5.551a.062.062,0,0,0,.07.07h1.762c.035,0,.07-.018.07-.053l.37-1.815a14.888,14.888,0,0,1,1.3-1.6c.493-.529.864-.811,1.128-.811.088,0,.176.018.194.211a.79.79,0,0,1-.018.194l-.775,3.807a.062.062,0,0,0,.07.07h1.762c.035,0,.07-.018.07-.053l.793-3.895a3.208,3.208,0,0,0,.07-.67,1.123,1.123,0,0,0-.388-.881A1.244,1.244,0,0,0,213.322,291.6Z" transform="translate(-171.096 -289.626)"/>
        <path id="Path_602" data-name="Path 602" d="M258.953,286.946h-1.269l.211-1.057a.106.106,0,0,0-.018-.07.065.065,0,0,0-.053-.018l-1.8.194a.047.047,0,0,0-.053.053l-.176.881h-.916c-.035,0-.053.018-.07.053l-.211.934a.065.065,0,0,0,.018.053c.018.018.035.035.053.035h.9l-.546,2.714a3.686,3.686,0,0,0-.088.775,1.216,1.216,0,0,0,.441.846,2.145,2.145,0,0,0,1.41.37,5.693,5.693,0,0,0,1.2-.141.056.056,0,0,0,.053-.053l.194-.987a.071.071,0,0,0-.088-.088,1.89,1.89,0,0,1-.687.123.8.8,0,0,1-.388-.106.346.346,0,0,1-.176-.335,3.181,3.181,0,0,1,.053-.476l.529-2.644h1.286c.035,0,.07-.018.07-.053l.194-.934a.065.065,0,0,0-.018-.053C258.988,286.963,258.971,286.946,258.953,286.946Z" transform="translate(-209.73 -284.848)"/>
        <path id="Path_603" data-name="Path 603" d="M290,292.3h-1.762c-.035,0-.07.018-.07.053l-.352,1.833a17.693,17.693,0,0,1-1.181,1.6c-.546.652-.846.793-1,.793-.07,0-.159-.018-.159-.211a.662.662,0,0,1,.018-.176l.828-3.807a.062.062,0,0,0-.07-.07h-1.762c-.035,0-.07.018-.07.053l-.846,3.895a3.207,3.207,0,0,0-.07.67,1.172,1.172,0,0,0,.37.881,1.258,1.258,0,0,0,.828.3,2.425,2.425,0,0,0,1.586-.67,6.027,6.027,0,0,0,1.163-1.428l-.388,1.886a.062.062,0,0,0,.07.07h1.762c.035,0,.07-.018.07-.053l1.128-5.551a.065.065,0,0,0-.018-.053C290.056,292.318,290.038,292.3,290,292.3Z" transform="translate(-233.537 -290.203)"/>
        <path id="Path_604" data-name="Path 604" d="M330.163,291.706c-.018-.018-.018-.035-.035-.035a1.783,1.783,0,0,0-.511-.07,2.655,2.655,0,0,0-1.569.67,6.266,6.266,0,0,0-1.3,1.463l.388-1.921a.062.062,0,0,0-.07-.07H325.3c-.035,0-.07.018-.07.053l-1.128,5.551a.062.062,0,0,0,.07.07h1.762c.035,0,.07-.018.07-.053l.37-1.815a14.925,14.925,0,0,1,1.392-1.674,2,2,0,0,1,1.357-.74,1.3,1.3,0,0,1,.476.106h.053a.038.038,0,0,0,.035-.035l.458-1.41A.092.092,0,0,0,330.163,291.706Z" transform="translate(-266.982 -289.626)"/>
        <path id="Path_605" data-name="Path 605" d="M363.816,295.683a8.286,8.286,0,0,1-1.6.617,5.745,5.745,0,0,1-1.234.194,1.59,1.59,0,0,1-.811-.211.9.9,0,0,1-.388-.74,7.048,7.048,0,0,0,2.168-.441,3.549,3.549,0,0,0,1.428-.952,1.774,1.774,0,0,0,.458-1.2,1.18,1.18,0,0,0-.493-.916,2.144,2.144,0,0,0-1.287-.335,4.159,4.159,0,0,0-2.044.529,4.211,4.211,0,0,0-1.551,1.5,3.573,3.573,0,0,0-.564,1.956,1.89,1.89,0,0,0,.3.952,1.976,1.976,0,0,0,.9.723,3.415,3.415,0,0,0,1.375.247,9.251,9.251,0,0,0,1.41-.141,8.172,8.172,0,0,0,1.762-.511c.018-.018.035-.035.035-.053l.229-1.163c0-.035,0-.053-.018-.07A.106.106,0,0,0,363.816,295.683Zm-2.309-2.855a.514.514,0,0,1,.388.123.4.4,0,0,1,.141.3c.018.264-.176.546-.529.811a2.842,2.842,0,0,1-1.621.405,2.4,2.4,0,0,1,.687-1.2A1.456,1.456,0,0,1,361.508,292.828Z" transform="translate(-294.82 -289.709)"/>
        <path id="Path_606" data-name="Path 606" d="M402.651,291.847a7.375,7.375,0,0,0-1.886-.247,3.093,3.093,0,0,0-1.991.529,1.414,1.414,0,0,0-.634,1.163,1.263,1.263,0,0,0,.194.634,4.576,4.576,0,0,0,.9.9l.458.37a2.231,2.231,0,0,1,.511.476.779.779,0,0,1,.088.264.463.463,0,0,1-.211.388,1.025,1.025,0,0,1-.582.159,6.29,6.29,0,0,1-2.1-.493h-.053c-.018.018-.035.035-.035.053l-.211,1.075a.1.1,0,0,0,.053.088,7.966,7.966,0,0,0,2.309.37,3.456,3.456,0,0,0,2.009-.493,1.389,1.389,0,0,0,.441-2.027,3.492,3.492,0,0,0-.775-.723l-.511-.405a3.876,3.876,0,0,1-.493-.423.432.432,0,0,1-.106-.282.389.389,0,0,1,.194-.352,1.075,1.075,0,0,1,.652-.159,4.334,4.334,0,0,1,1.568.335h.053c.018-.018.035-.035.035-.053l.211-1.022C402.7,291.882,402.687,291.847,402.651,291.847Z" transform="translate(-327.116 -289.626)"/>
      </g>
    </g>
  </g>
</svg>
