<svg xmlns="http://www.w3.org/2000/svg" viewBox="0 0 22.7 16.69"><defs><style>.cls-1{fill:#fff;}</style></defs><title>dgv_mark</title><g id="Layer_2" data-name="Layer 2"><g id="Layer_1-2" data-name="Layer 1"><g id="Group_112" data-name="Group 112"><g id="Group_111" data-name="Group 111"><g id="Group_110" data-name="Group 110"><path id="Path_960" data-name="Path 960" class="cls-1" d="M10.82,16.69c5.91-.42,11.88-4,11.88-8.32C22.68,3.74,16,0,9.69,0S0,3.74,0,8.36A9.91,9.91,0,0,0,.09,9.69a.61.61,0,0,0,.15.36.89.89,0,0,0,.4.06,6.57,6.57,0,0,0,3-.75C4.49,8.92,12,4.47,12,4.47l-.82-.29,4-.48s-8.28,6.37-10.34,8A11.5,11.5,0,0,1,2,13.15c-.13.06-.18.09-.2.17a.3.3,0,0,0,.07.31,8.09,8.09,0,0,0,1.77,1.53.49.49,0,0,0,.38.11c.08,0,.1-.22.13-.42A4.85,4.85,0,0,1,5.84,12C7.26,10.82,16,3.78,16,3.78L17.64,6.3l-1.4-.52L11,12.13a3.93,3.93,0,0,0-.88,4.1.79.79,0,0,0,.24.35A1,1,0,0,0,10.82,16.69Z"/></g></g></g></g></g></svg>