<svg id="Component_23_2" data-name="Component 23 – 2" xmlns="http://www.w3.org/2000/svg" width="22.196" height="22.196" viewBox="0 0 22.196 22.196">
  <circle id="Ellipse_5" data-name="Ellipse 5" cx="11.098" cy="11.098" r="11.098" fill="#222"/>
  <g id="house-black-silhouette-without-door" transform="translate(5.747 5.894)">
    <path id="Path_190" data-name="Path 190" d="M10.632,9.976a.513.513,0,0,0-.042-.735L5.778,5.031A.6.6,0,0,0,5,5.04L.167,9.466a.51.51,0,0,0-.023.734l.121.126a.528.528,0,0,0,.725.055l.361-.323v4.731a.525.525,0,0,0,.525.525H3.758a.525.525,0,0,0,.525-.525v-3.31h2.4v3.31a.5.5,0,0,0,.493.525H9.171a.525.525,0,0,0,.525-.525V10.124l.223.2c.123.108.381.021.576-.193Z" transform="translate(0 -4.89)" fill="#fff"/>
  </g>
</svg>
