<svg xmlns="http://www.w3.org/2000/svg" viewBox="0 0 22.474 22.474">
  <defs>
    <style>
      .cls-1{fill:#222}
    </style>
  </defs>
  <g id="Layer_2" data-name="Layer 2"  width="22.474" height="22.474">
    <g id="_003-linkedin" data-name="003-linkedin">
      <path class="cls-1" d="M20.55 5a10.89 10.89 0 00-1.37-1.66 12.05 12.05 0 00-1.65-1.36A11.23 11.23 0 005 1.92a11.09 11.09 0 00-3 3V5a11.23 11.23 0 000 12.56 11.42 11.42 0 003 3 11.25 11.25 0 0012.57 0 11.46 11.46 0 003-3.06A11.21 11.21 0 0020.55 5zm-3.4 9.93a2.23 2.23 0 01-2.26 2.26H7.57a2.23 2.23 0 01-2.26-2.26V7.57a2.23 2.23 0 012.26-2.26h7.32a2.23 2.23 0 012.26 2.26z"/>
      <path class="cls-1" d="M9.14 11.23A2.19 2.19 0 019.53 10a2.08 2.08 0 013.4 0 2.2 2.2 0 01.4 1.23 2.1 2.1 0 11-4.19 0zM15.78 8.67h-2V6.65h1.76l.24-.02v2.04z"/>
      <path class="cls-1" d="M16.09 10v4.87a1.23 1.23 0 01-1.2 1.2H7.57a1.24 1.24 0 01-1.2-1.2V10h1.84A2.93 2.93 0 008 11.23a3.26 3.26 0 106.52 0 3 3 0 00-.27-1.23z"/>
      <path class="cls-1" d="M13.33 11.23a2.1 2.1 0 11-4.19 0A2.19 2.19 0 019.53 10a2.08 2.08 0 013.4 0 2.2 2.2 0 01.4 1.23z"/>
      <path class="cls-1" d="M16.09 10v4.87a1.23 1.23 0 01-1.2 1.2H7.57a1.24 1.24 0 01-1.2-1.2V10h1.84A2.93 2.93 0 008 11.23a3.26 3.26 0 106.52 0 3 3 0 00-.27-1.23zM15.78 6.63v2.04h-2V6.65h1.76l.24-.02z"/>
    </g>
  </g>
</svg>