<svg id="_001-twitter" data-name="001-twitter" xmlns="http://www.w3.org/2000/svg" width="22.474" height="22.474" viewBox="0 0 22.474 22.474">
  <ellipse id="Ellipse_3" data-name="Ellipse 3" cx="11.237" cy="11.237" rx="11.237" ry="11.237" fill="#222"/>
  <g id="Group_32" data-name="Group 32" transform="translate(5.028 6.816)">
    <path id="Path_169" data-name="Path 169" d="M38.2,35.288a5.359,5.359,0,0,1-1.543.422,2.693,2.693,0,0,0,1.181-1.486,5.377,5.377,0,0,1-1.706.652,2.688,2.688,0,0,0-4.577,2.45,7.625,7.625,0,0,1-5.536-2.807,2.689,2.689,0,0,0,.831,3.586,2.667,2.667,0,0,1-1.216-.336c0,.011,0,.023,0,.034a2.688,2.688,0,0,0,2.155,2.634,2.7,2.7,0,0,1-1.213.046,2.689,2.689,0,0,0,2.509,1.865A5.422,5.422,0,0,1,25.1,43.461a7.639,7.639,0,0,0,11.759-6.436q0-.175-.008-.347a5.447,5.447,0,0,0,1.34-1.39Z" transform="translate(-25.103 -34.028)" fill="#fff"/>
  </g>
</svg>
