<svg id="_003-linkedin" data-name="003-linkedin" xmlns="http://www.w3.org/2000/svg" width="22.474" height="22.474" viewBox="0 0 22.474 22.474">
  <path id="_003-linkedin-2" data-name="003-linkedin" d="M11.237,0A11.237,11.237,0,1,0,22.474,11.237,11.238,11.238,0,0,0,11.237,0ZM7.972,16.987H5.235V8.754H7.972ZM6.6,7.63H6.586a1.426,1.426,0,1,1,.036-2.845A1.427,1.427,0,1,1,6.6,7.63ZM17.84,16.987H15.1v-4.4c0-1.107-.4-1.862-1.386-1.862a1.5,1.5,0,0,0-1.4,1,1.874,1.874,0,0,0-.09.668v4.6H9.486s.036-7.461,0-8.234h2.737V9.92a2.717,2.717,0,0,1,2.466-1.359c1.8,0,3.151,1.177,3.151,3.706Zm0,0" fill="#222"/>
</svg>
