<svg xmlns="http://www.w3.org/2000/svg" width="222.863" height="30.495">
  <g data-name="Group 99">
    <g data-name="Group 99">
      <path data-name="Path 585" d="M73.821 7.633a14.565 14.565 0 00-4.633-.567h-8.065a.221.221 0 00-.167.133L57.657 23.53a.2.2 0 00.033.133.173.173 0 00.133.067h7.5a13.755 13.755 0 006.566-1.333 10.553 10.553 0 005.466-9.5 5.84 5.84 0 00-1-3.366 5.744 5.744 0 00-2.534-1.898zm-9.032 2h1.1c2.533 0 4.333.3 5.3.867a3.084 3.084 0 011.5 2.733 8.274 8.274 0 01-.966 4.033 7.289 7.289 0 01-2.733 2.933 8.551 8.551 0 01-4.366 1h-2.1z"/>
      <path data-name="Path 586" d="M97.75 7.299a30.288 30.288 0 00-5.766-.633 13.776 13.776 0 00-6.666 1.533 11.916 11.916 0 00-4.366 4.166 9.629 9.629 0 00-1.5 5.466 5.863 5.863 0 002.233 4.6 9.107 9.107 0 005.866 1.7 36.359 36.359 0 007.365-.9c.067 0 .1-.067.133-.133l1.4-6.866a.2.2 0 00-.033-.133.173.173 0 00-.133-.067H92.35a.221.221 0 00-.167.133l-1.033 5.1a8.272 8.272 0 01-2.166.3 5.438 5.438 0 01-3.633-1.1 3.99 3.99 0 01-1.366-3 8.457 8.457 0 011-4.1 7.809 7.809 0 012.733-3.1 7.266 7.266 0 013.966-1.066 11.336 11.336 0 011.5.1c.5.067 1.066.167 1.633.267.567.133 1.366.333 2.333.633h.133c.033-.033.067-.067.067-.1l.5-2.633a.122.122 0 00-.033-.1.072.072 0 00-.067-.067z"/>
      <path data-name="Path 587" d="M124.249 7.166a.173.173 0 00-.133-.067h-3.2a.173.173 0 00-.133.067l-7.6 12.165L110.217 7.2c-.033-.067-.067-.133-.167-.133h-4.133a.253.253 0 00-.133.067.2.2 0 00-.033.133l3.966 16.331c.033.067.067.133.167.133h4.1a.173.173 0 00.133-.067l10.132-16.331a.149.149 0 000-.167z"/>
      <path data-name="Path 588" d="M135.278 19.764a16.519 16.519 0 01-3.533 1.333 13.033 13.033 0 01-2.666.433 3.585 3.585 0 01-1.762-.466 2.067 2.067 0 01-.867-1.633 15.066 15.066 0 004.733-.967 8.136 8.136 0 003.133-2.066 3.852 3.852 0 001-2.633 2.568 2.568 0 00-1.1-2 4.652 4.652 0 00-2.8-.733 9.113 9.113 0 00-4.466 1.166 8.962 8.962 0 00-3.4 3.3 7.707 7.707 0 00-1.233 4.3 4.4 4.4 0 00.633 2.1 3.947 3.947 0 001.966 1.566 7.884 7.884 0 003 .567 19.964 19.964 0 003.1-.3 18.578 18.578 0 003.866-1.133c.033-.033.1-.067.1-.1l.5-2.533c0-.067 0-.133-.067-.167-.004-.066-.071-.066-.137-.034zm-5.033-6.232a1.344 1.344 0 01.867.267.873.873 0 01.3.633c.033.6-.367 1.2-1.166 1.766a5.993 5.993 0 01-3.533.867 5.225 5.225 0 011.533-2.633 3.15 3.15 0 011.999-.9z"/>
      <path data-name="Path 589" d="M149.942 11.032a5.875 5.875 0 00-3.7 1.466 14.826 14.826 0 00-2.8 3.2l.833-4.2a.2.2 0 00-.033-.133.173.173 0 00-.133-.067h-3.8a.221.221 0 00-.167.133l-2.465 12.132a.2.2 0 00.033.133.173.173 0 00.133.067h3.834a.222.222 0 00.167-.133l.8-4a36.108 36.108 0 012.866-3.533c1.067-1.165 1.899-1.765 2.467-1.765.2 0 .4.067.4.467a2.05 2.05 0 01-.033.433l-1.667 8.3a.2.2 0 00.033.133.173.173 0 00.133.067h3.834a.222.222 0 00.167-.133l1.733-8.534a5.846 5.846 0 00.133-1.466 2.5 2.5 0 00-.833-1.933 2.935 2.935 0 00-1.935-.634z"/>
      <path data-name="Path 590" d="M165.239 11.299h-2.765l.467-2.3a.2.2 0 00-.033-.133c-.033-.033-.067-.067-.133-.033l-3.933.433a.143.143 0 00-.133.133l-.4 1.933h-2a.221.221 0 00-.167.133l-.467 2.033a.2.2 0 00.033.133.173.173 0 00.133.067h1.966l-1.2 5.932a10.222 10.222 0 00-.2 1.7 2.518 2.518 0 00.967 1.83 4.622 4.622 0 003.066.833 10.119 10.119 0 002.6-.333c.067 0 .1-.067.1-.133l.434-2.13c0-.067 0-.1-.067-.133a.25.25 0 00-.167-.033 4.744 4.744 0 01-1.5.267 1.583 1.583 0 01-.833-.233.79.79 0 01-.4-.733 4.82 4.82 0 01.133-1.033l1.166-5.766h2.833a.221.221 0 00.167-.133l.4-2.033a.2.2 0 00-.033-.133c.066-.102.033-.135-.034-.135z"/>
      <path data-name="Path 591" d="M181.072 11.299h-3.866a.221.221 0 00-.167.133l-.8 4a33.381 33.381 0 01-2.566 3.5c-1.2 1.433-1.833 1.733-2.2 1.733-.167 0-.333-.067-.367-.467a1.5 1.5 0 01.033-.367l1.8-8.3a.2.2 0 00-.033-.133.173.173 0 00-.133-.067h-3.8a.221.221 0 00-.167.133l-1.867 8.535a8.237 8.237 0 00-.167 1.466 2.542 2.542 0 00.8 1.934 2.67 2.67 0 001.833.633 5.374 5.374 0 003.466-1.466 15.3 15.3 0 002.566-3.1l-.833 4.133a.2.2 0 00.033.133.173.173 0 00.133.067h3.833a.221.221 0 00.167-.133l2.466-12.131a.2.2 0 00-.033-.133c-.067-.07-.1-.103-.131-.103z"/>
      <path data-name="Path 592" d="M195.736 11.265c-.033-.033-.067-.067-.1-.067a4.662 4.662 0 00-1.133-.167 5.734 5.734 0 00-3.433 1.466 12.786 12.786 0 00-2.833 3.2l.833-4.2a.2.2 0 00-.033-.133.173.173 0 00-.133-.067h-3.833a.221.221 0 00-.167.133l-2.468 12.133a.2.2 0 00.033.133.173.173 0 00.133.067h3.834a.221.221 0 00.167-.133l.8-4a33.661 33.661 0 013.066-3.666 4.547 4.547 0 012.967-1.632 2.664 2.664 0 011.033.233h.133c.033-.033.067-.067.067-.1l1.033-3.1a.122.122 0 00.034-.1z"/>
      <path data-name="Path 593" d="M208.432 19.764a16.517 16.517 0 01-3.533 1.333 13.033 13.033 0 01-2.666.433 3.585 3.585 0 01-1.766-.467 2.067 2.067 0 01-.866-1.633 15.066 15.066 0 004.733-.967 8.136 8.136 0 003.133-2.066 3.852 3.852 0 001-2.633 2.568 2.568 0 00-1.1-2 4.652 4.652 0 00-2.8-.733 9.113 9.113 0 00-4.466 1.166 8.962 8.962 0 00-3.4 3.3 7.708 7.708 0 00-1.233 4.3 4.4 4.4 0 00.633 2.1 3.947 3.947 0 001.966 1.566 7.883 7.883 0 003 .567 19.966 19.966 0 003.1-.3 18.578 18.578 0 003.866-1.133c.033-.033.1-.067.1-.1l.5-2.533c0-.067 0-.133-.067-.167-.001-.065-.068-.065-.134-.033zm-5.033-6.232a1.344 1.344 0 01.867.267.873.873 0 01.3.633c.033.6-.367 1.2-1.166 1.766a5.993 5.993 0 01-3.533.867 5.225 5.225 0 011.533-2.633 3.15 3.15 0 011.999-.9z"/>
      <path data-name="Path 594" d="M222.731 11.532a16.711 16.711 0 00-4.135-.533 6.9 6.9 0 00-4.366 1.166 3.171 3.171 0 00-1.366 2.533 2.853 2.853 0 00.433 1.4 9.5 9.5 0 001.966 1.966l1 .8a4.565 4.565 0 011.1 1.033 1.124 1.124 0 01.167.567.92.92 0 01-.467.833 2.222 2.222 0 01-1.3.367 12.771 12.771 0 01-4.566-1.1h-.133c-.033.033-.067.067-.067.1l-.466 2.335c0 .067.033.167.1.167a17.58 17.58 0 005.066.8 7.872 7.872 0 004.4-1.066 3.133 3.133 0 001.533-2.766 3.074 3.074 0 00-.6-1.666 9.693 9.693 0 00-1.666-1.566l-1.133-.867a5.729 5.729 0 01-1.066-.933 1.038 1.038 0 01-.233-.6.934.934 0 01.4-.767 2.331 2.331 0 011.433-.333 9.647 9.647 0 013.433.733h.133c.033-.033.067-.067.067-.1l.467-2.266c-.003-.137-.034-.203-.134-.237z"/>
    </g>
    <g data-name="Group 102">
      <g data-name="Group 101">
        <g data-name="Group 100">
          <path data-name="Path 595" d="M19.763 30.495c10.8-.767 21.7-7.265 21.7-15.2C41.426 6.832 29.128 0 17.7 0S0 6.832 0 15.264A19.447 19.447 0 00.167 17.7a1.224 1.224 0 00.267.667 1.49 1.49 0 00.733.1A12.135 12.135 0 006.732 17.1c1.466-.8 15.2-8.932 15.2-8.932l-1.5-.533 7.3-.867S12.6 18.4 8.832 21.33a20.994 20.994 0 01-5.2 2.7c-.233.1-.333.167-.367.3a.55.55 0 00.135.57 14.6 14.6 0 003.233 2.8.912.912 0 00.7.2c.133-.067.167-.4.233-.767a8.839 8.839 0 013.1-5.232c2.6-2.133 18.564-15 18.564-15l3 4.6-2.566-.933S21.33 20.6 20.03 22.163c-2.566 3.066-2.233 5.832-1.6 7.5a1.463 1.463 0 00.433.633 1.984 1.984 0 00.9.199z" fill="#0075c1"/>
        </g>
      </g>
    </g>
  </g>
</svg>
