<svg xmlns="http://www.w3.org/2000/svg" viewBox="0 0 65.03 30.66"><defs><style>.cls-1{fill:#fff;}.cls-2{fill:none;}</style></defs><title>logo_717</title><g id="Layer_2" data-name="Layer 2"><g id="Layer_1-2" data-name="Layer 1"><g id="Layer_2-2" data-name="Layer 2"><g id="Layer_1-3" data-name="Layer 1"><g id="Group_376" data-name="Group 376"><g id="Group_376-2" data-name="Group 376-2"><path id="Path_2052" data-name="Path 2052" class="cls-1" d="M24.45,13H19.19A3.27,3.27,0,0,0,18,13.2L6.39,18.08a.37.37,0,0,0-.25.46h0a.31.31,0,0,0,.13.19l5.44,4.68a1.72,1.72,0,0,0,1,.42h7.42a1,1,0,0,0,.82-.57l1.21-3.16a.38.38,0,0,0-.16-.52.37.37,0,0,0-.23,0H19.29a1,1,0,0,0-.89.57l-.5,1.28a.94.94,0,0,1-.81.57h-.95a1.82,1.82,0,0,1-1.05-.4l-3.36-2.5a.36.36,0,0,1-.1-.49h0a.35.35,0,0,1,.2-.14L19,15.26A3.54,3.54,0,0,1,20.2,15h3.56a.81.81,0,0,0,.74-.54l.34-.92a.38.38,0,0,0-.16-.52h0A.29.29,0,0,0,24.45,13Zm-6.72-1.31-8-4.5a2.83,2.83,0,0,0-1.11-.31l-4.45,0a.91.91,0,0,0-.8.56L0,16.72a.4.4,0,0,0,.18.54.54.54,0,0,0,.22,0H4.68a3.93,3.93,0,0,0,1.17-.24l11.87-4.88c.31-.12.32-.36,0-.52ZM12.15,12,6.49,14.41a3.46,3.46,0,0,1-1.15.23H4.89a.4.4,0,0,1-.44-.35h0a.54.54,0,0,1,0-.22L6.06,9.75a.92.92,0,0,1,.8-.58H7.3a3,3,0,0,1,1.13.29l3.75,2c.29.15.29.39,0,.51Z"/></g><g id="Group_377" data-name="Group 377"><path id="Path_2053" data-name="Path 2053" class="cls-1" d="M28.67,20c-.29,0-.34-.15-.12-.34L36.4,13c.22-.18.16-.34-.13-.34H28.72a.34.34,0,0,1-.38-.3.31.31,0,0,1,0-.19l.37-1a.83.83,0,0,1,.72-.49H41.31a.35.35,0,0,1,.38.29.34.34,0,0,1,0,.2L41,12.86a2.72,2.72,0,0,1-.59.84l-7,5.93a1.76,1.76,0,0,1-.94.34Z"/><path id="Path_2054" data-name="Path 2054" class="cls-1" d="M52,20c-.29,0-.34-.15-.12-.34L59.74,13c.22-.18.17-.34-.13-.34H52.06a.35.35,0,0,1-.38-.29.31.31,0,0,1,0-.19l.36-1a.84.84,0,0,1,.72-.49H64.65A.35.35,0,0,1,65,11a.28.28,0,0,1,0,.2l-.62,1.65a2.42,2.42,0,0,1-.59.84l-7,5.93a1.76,1.76,0,0,1-.94.34Z"/><path id="Path_2055" data-name="Path 2055" class="cls-1" d="M43.6,12.68a.35.35,0,0,1-.38-.3.27.27,0,0,1,0-.19l.35-1a.83.83,0,0,1,.72-.5h5.4a.34.34,0,0,1,.37.3.32.32,0,0,1,0,.19l-3.13,8.27a.84.84,0,0,1-.72.51h-3a.36.36,0,0,1-.39-.3.34.34,0,0,1,0-.2l2.31-6.31A.35.35,0,0,0,45,12.7a.32.32,0,0,0-.19,0Z"/></g></g></g></g><rect class="cls-2" x="0.04" width="64.95" height="30.66"/></g></g></svg>