<svg xmlns="http://www.w3.org/2000/svg" viewBox="0 0 30.66 30.66"><defs><style>.cls-1{fill:#fff;}.cls-2{fill:none;}</style></defs><title>logo_cb</title><g id="Layer_2" data-name="Layer 2"><g id="Layer_1-2" data-name="Layer 1"><path class="cls-1" d="M28.05,14.08a6.75,6.75,0,0,0-5.2-2.37h-.5A6.84,6.84,0,0,0,19,12.87V5.24H16.22V24.87H19v-.71a6.88,6.88,0,0,0,6.3.71,6.76,6.76,0,0,0,2-1.17A6.85,6.85,0,0,0,28.05,14.08Zm-1.3,5v.09a.15.15,0,0,1,0,.13,3,3,0,0,1-.11.48,4.94,4.94,0,0,1-.19.49,3.84,3.84,0,0,1-1.86,1.85,4.07,4.07,0,0,1-.76.28H22.2a3.42,3.42,0,0,1-1-.31,3.75,3.75,0,0,1-1.56-1.43c0-.17-.19-.32-.26-.49a4.08,4.08,0,0,1-.32-1.57,3.91,3.91,0,0,1,3.53-3.9H23a3.94,3.94,0,0,1,3.94,3.93A2.75,2.75,0,0,1,26.75,19Z"/><path class="cls-1" d="M11.41,20.19h3.08a6.85,6.85,0,1,1,0-3.25H11.41a3.86,3.86,0,0,0-1.93-2,3.92,3.92,0,1,0,1.93,5.2Z"/><rect class="cls-2" width="30.66" height="30.66"/></g></g></svg>