<svg xmlns="http://www.w3.org/2000/svg" viewBox="0 0 64.95 30.66"><defs><style>.cls-1{fill:none;}.cls-2{fill:#fff;}</style></defs><title>logo_dglab</title><g id="Layer_2" data-name="Layer 2"><g id="Layer_1-2" data-name="Layer 1"><g id="Layer_2-2" data-name="Layer 2"><g id="Layer_1-2-2" data-name="Layer 1-2"><rect class="cls-1" width="64.95" height="30.66"/></g></g><g id="Layer_2-3" data-name="Layer 2"><g id="Layer_1-2-3" data-name="Layer 1-2"><path class="cls-2" d="M23.48,23.56a.72.72,0,0,1,.14-.24.69.69,0,0,1,.22-.16.76.76,0,0,1,.59,0,.69.69,0,0,1,.22.16.56.56,0,0,1,.13.24.58.58,0,0,1,0,.29.63.63,0,0,1,0,.3.59.59,0,0,1-.13.23.54.54,0,0,1-.22.15.76.76,0,0,1-.59,0,.54.54,0,0,1-.22-.15,1.09,1.09,0,0,1-.14-.23,1,1,0,0,1,0-.3A.92.92,0,0,1,23.48,23.56Zm.3.46a.34.34,0,0,0,.06.15.33.33,0,0,0,.13.11.33.33,0,0,0,.17,0,.37.37,0,0,0,.18,0,.25.25,0,0,0,.12-.11.52.52,0,0,0,.07-.15.88.88,0,0,0,0-.17,1.1,1.1,0,0,0,0-.18.77.77,0,0,0-.07-.16.43.43,0,0,0-.12-.11.37.37,0,0,0-.18,0,.33.33,0,0,0-.17,0,.47.47,0,0,0-.13.11.44.44,0,0,0-.06.16,1.1,1.1,0,0,0,0,.18A.88.88,0,0,0,23.78,24Z"/><path class="cls-2" d="M25.67,23.14a.62.62,0,0,1,.23,0,.65.65,0,0,1,.15.1.46.46,0,0,1,.09.15.73.73,0,0,1,0,.34.6.6,0,0,1-.09.15.4.4,0,0,1-.15.1.59.59,0,0,1-.23,0h-.33v.49H25V23.14Zm-.09.66h.11a.11.11,0,0,0,.08,0,.12.12,0,0,0,.06-.06.23.23,0,0,0,0-.11.2.2,0,0,0,0-.11.09.09,0,0,0-.06-.06.2.2,0,0,0-.08,0h-.35v.43Z"/><path class="cls-2" d="M27.38,23.14v.26h-.75v.3h.69v.24h-.69v.34h.76v.27H26.32V23.14Z"/><path class="cls-2" d="M27.91,23.14l.59.95h0v-.95h.29v1.41H28.5l-.59-.95h0v.95h-.3V23.14Z"/><path class="cls-2" d="M29.94,23.14v1.41h-.31V23.14Z"/><path class="cls-2" d="M30.52,23.14l.59.95h0v-.95h.29v1.41h-.31l-.59-.95h0v.95h-.29V23.14Z"/><path class="cls-2" d="M32,23.14l.59.95h0v-.95h.3v1.41h-.3L32,23.6h0v.95h-.29V23.14Z"/><path class="cls-2" d="M33.12,23.56a.72.72,0,0,1,.14-.24.6.6,0,0,1,.22-.16.76.76,0,0,1,.59,0,.65.65,0,0,1,.21.16.58.58,0,0,1,.14.24.93.93,0,0,1,0,.29,1,1,0,0,1,0,.3.62.62,0,0,1-.14.23.51.51,0,0,1-.21.15.76.76,0,0,1-.59,0,.48.48,0,0,1-.22-.15.79.79,0,0,1-.14-.23,1,1,0,0,1,0-.3A.93.93,0,0,1,33.12,23.56Zm.3.47a.47.47,0,0,0,.06.15.29.29,0,0,0,.12.1.35.35,0,0,0,.36,0,.38.38,0,0,0,.12-.1.47.47,0,0,0,.06-.15.82.82,0,0,0,0-.36.34.34,0,0,0-.06-.15.25.25,0,0,0-.12-.11.3.3,0,0,0-.18,0,.28.28,0,0,0-.18,0,.25.25,0,0,0-.12.11.34.34,0,0,0-.06.15.57.57,0,0,0,0,.18.88.88,0,0,0,0,.17Z"/><path class="cls-2" d="M34.94,24.55l-.46-1.41h.32l.31,1h0l.32-1h.33l-.48,1.41Z"/><path class="cls-2" d="M36.49,23.14,37,24.56H36.7l-.11-.32h-.53l-.11.32h-.32l.53-1.42Zm0,.88-.18-.52h0l-.19.52Z"/><path class="cls-2" d="M36.87,23.4v-.26H38v.26h-.42v1.15H37.3V23.4Z"/><path class="cls-2" d="M38.49,23.14v1.41h-.31V23.14Z"/><path class="cls-2" d="M38.74,23.56a.72.72,0,0,1,.14-.24.69.69,0,0,1,.22-.16.73.73,0,0,1,.3-.06.72.72,0,0,1,.29.06.69.69,0,0,1,.22.16.56.56,0,0,1,.13.24.71.71,0,0,1,.05.29.79.79,0,0,1-.05.3.59.59,0,0,1-.13.23.54.54,0,0,1-.22.15.72.72,0,0,1-.29.06.73.73,0,0,1-.3-.06.54.54,0,0,1-.22-.15.79.79,0,0,1-.14-.23,1,1,0,0,1,0-.3A.92.92,0,0,1,38.74,23.56ZM39,24a.47.47,0,0,0,.06.15.38.38,0,0,0,.3.15.41.41,0,0,0,.18,0,.29.29,0,0,0,.12-.1.47.47,0,0,0,.06-.15.56.56,0,0,0,0-.36.34.34,0,0,0-.06-.15.25.25,0,0,0-.12-.11.3.3,0,0,0-.18,0,.33.33,0,0,0-.3.15.34.34,0,0,0-.06.15.55.55,0,0,0,0,.18A.91.91,0,0,0,39,24Z"/><path class="cls-2" d="M40.6,23.14l.59.95h0v-.95h.3v1.41h-.32l-.59-.95h0v.95h-.29V23.14Z"/><path class="cls-2" d="M27.86,25.42a.59.59,0,0,1,.23,0,.31.31,0,0,1,.15.1.42.42,0,0,1,.09.14.52.52,0,0,1,0,.17.47.47,0,0,1,0,.17.6.6,0,0,1-.09.15.4.4,0,0,1-.15.1.59.59,0,0,1-.23,0h-.32v.5h-.31V25.42Zm-.08.67h.1l.09,0A.12.12,0,0,0,28,26a.2.2,0,0,0,0-.11.15.15,0,0,0,0-.11.17.17,0,0,0-.06-.06.16.16,0,0,0-.09,0h-.34v.41Z"/><path class="cls-2" d="M28.83,25.42v1.15h.69v.26h-1V25.42Z"/><path class="cls-2" d="M30.45,25.42,31,26.83h-.32l-.11-.31H30l-.11.31H29.6l.53-1.41Zm0,.88-.18-.52h0l-.18.52Z"/><path class="cls-2" d="M30.84,25.68v-.26H32v.26h-.43v1.15h-.31V25.68Z"/><path class="cls-2" d="M33.14,25.42v.26h-.69V26H33v.24h-.59v.59h-.31V25.42Z"/><path class="cls-2" d="M33.26,25.84a.72.72,0,0,1,.14-.24.69.69,0,0,1,.22-.16.77.77,0,0,1,.3-.06.72.72,0,0,1,.29.06.69.69,0,0,1,.22.16.56.56,0,0,1,.13.24.71.71,0,0,1,0,.29.79.79,0,0,1,0,.3.76.76,0,0,1-.13.23.69.69,0,0,1-.22.16.93.93,0,0,1-.29.05,1,1,0,0,1-.3-.05.69.69,0,0,1-.22-.16,1.09,1.09,0,0,1-.14-.23,1,1,0,0,1,0-.3A.92.92,0,0,1,33.26,25.84Zm.3.47a.47.47,0,0,0,.06.15.69.69,0,0,0,.13.11.33.33,0,0,0,.17,0,.53.53,0,0,0,.18,0,.43.43,0,0,0,.12-.11,1,1,0,0,0,.07-.15.82.82,0,0,0,0-.36.69.69,0,0,0-.07-.15.25.25,0,0,0-.12-.11.28.28,0,0,0-.18,0,.25.25,0,0,0-.17,0,.28.28,0,0,0-.13.11.39.39,0,0,0-.06.15,1.1,1.1,0,0,0,0,.18,1.09,1.09,0,0,0,0,.18Z"/><path class="cls-2" d="M35.57,25.42a.47.47,0,0,1,.17,0,.57.57,0,0,1,.13.08.38.38,0,0,1,.09.13.45.45,0,0,1,0,.36.29.29,0,0,1-.17.14h0l.1.05.06.08,0,.1a.18.18,0,0,0,0,.1v.18a.19.19,0,0,0,0,.08.11.11,0,0,0,0,.08h-.31a.94.94,0,0,1,0-.16c0-.06,0-.12,0-.18a.29.29,0,0,0-.07-.16.27.27,0,0,0-.17-.06h-.31v.56H34.8V25.41Zm-.11.64a.24.24,0,0,0,.16,0,.17.17,0,0,0,.05-.15.17.17,0,0,0-.05-.15.24.24,0,0,0-.16-.05h-.34v.4Z"/><path class="cls-2" d="M36.67,25.42l.33,1h0l.31-1h.44v1.41h-.29v-1h0l-.35,1h-.24l-.35-1h0v1h-.29V25.42Z"/><path class="cls-2" d="M23.43,3.79V21.87H41.52V3.79Zm4,3.92H29.7A2.44,2.44,0,0,1,32,10.2a2.36,2.36,0,0,1-2.31,2.41h-.92v-1h.84a1.47,1.47,0,0,0,1.36-1.43,1.45,1.45,0,0,0-1.37-1.5H28.46v3.93h-1ZM29.78,18h-1c-.79,0-1.32-.39-1.32-1.47V13.12h1v3.3c0,.45.18.59.53.59h.78Zm4,0H32.68V16.26H31.61v-1h1.07v-.66A.69.69,0,0,0,32,14a.67.67,0,0,0-.62.63V18H30.23v-3.2a1.77,1.77,0,1,1,3.54,0Zm2.42,0h-.71v-1H36c.3,0,.47-.23.47-.55a.51.51,0,0,0-.42-.57h-.6v-.85h.26c.35,0,.58-.17.58-.52a.49.49,0,0,0-.45-.54h-.06c-.34,0-.59.19-.59.67V18h-1V14.79c0-1.24.66-1.77,1.64-1.77a1.42,1.42,0,0,1,1.47,1.37v.06a1.11,1.11,0,0,1-.48,1,1.27,1.27,0,0,1,.67,1.18A1.33,1.33,0,0,1,36.19,18Zm1.34-7.66a2.42,2.42,0,0,1-2.48,2.32,2.53,2.53,0,1,1,0-5.06,2.82,2.82,0,0,1,2,.78l-.65.76a1.76,1.76,0,0,0-1.27-.54,1.53,1.53,0,0,0,0,3.05,1.38,1.38,0,0,0,1.31-1H35.07V9.7h2.45Z"/></g></g></g></g></svg>