<svg xmlns="http://www.w3.org/2000/svg" viewBox="0 0 185.52 30.66"><defs><style>.cls-1{fill:#fff;}.cls-2{fill:none;}</style></defs><title>logo_dgg</title><g id="Layer_2" data-name="Layer 2"><g id="Layer_1-2" data-name="Layer 1"><g id="Layer_1-3" data-name="Layer 1"><path id="Path_118" data-name="Path 118" class="cls-1" d="M70.14,14.33h0c-.27,0-.66,0-1.11,0a4.85,4.85,0,0,0-4.64,3.79c-1.1,3.56,2.77,3.78,4.93.38l-.46,2.33h2l1.29-6.47Zm-3.78,4.91c-.2-.2-.27-.75.39-2.06S68.3,15.36,69,15.36a3.65,3.65,0,0,1,.93.12h0l-.06.3C68.81,17.89,66.81,19.69,66.36,19.24Z"/><path id="Path_119" data-name="Path 119" class="cls-1" d="M99.21,14.33h0c-.27,0-.65,0-1.11,0a4.87,4.87,0,0,0-4.65,3.79c-1.1,3.57,2.78,3.79,5,.39l-.47,2.32h2l1.3-6.45Zm-3.78,4.91c-.2-.2-.28-.75.38-2.06s1.56-1.82,2.23-1.82a3.83,3.83,0,0,1,1,.12h0l-.06.3C97.87,17.89,95.88,19.69,95.43,19.24Z"/><path id="Path_120" data-name="Path 120" class="cls-1" d="M115.55,14.33h0c-.27,0-.65,0-1.11,0a4.88,4.88,0,0,0-4.65,3.79c-1.09,3.56,2.78,3.78,4.94.38l-.47,2.33h2.06l1.29-6.47Zm-3.78,4.91c-.21-.2-.28-.75.39-2.06s1.55-1.82,2.22-1.82a3.73,3.73,0,0,1,.94.12h0l-.06.3C114.22,17.89,112.23,19.69,111.77,19.24Z"/><path id="Path_121" data-name="Path 121" class="cls-1" d="M50.13,14.32v0c-.27,0-.71,0-1.27,0a4.87,4.87,0,0,0-4.64,3.79c-1.09,3.55,2.75,3.78,4.91.42L48.7,20.7a1.67,1.67,0,0,1-1.89,1.41h-.05a6.51,6.51,0,0,1-.88-.06,6.14,6.14,0,0,1-.93-.19c-.32-.08-.73-.21-1.24-.39l.15,1.46a10,10,0,0,0,2.61.32,6.32,6.32,0,0,0,2.15-.34,3.13,3.13,0,0,0,1.5-1A5.88,5.88,0,0,0,51,19.57L52,14.32ZM46.2,19.24c-.2-.2-.28-.75.39-2.06s1.55-1.82,2.23-1.82a4.47,4.47,0,0,1,1,.13h0C48.83,17.72,46.67,19.71,46.2,19.24Z"/><path id="Path_122" data-name="Path 122" class="cls-1" d="M124.92,14.32v0c-.28,0-.72,0-1.27,0A4.87,4.87,0,0,0,119,18.09c-1.09,3.55,2.75,3.78,4.91.42l-.43,2.19a1.67,1.67,0,0,1-1.89,1.41h0a6.51,6.51,0,0,1-.88-.06,6.14,6.14,0,0,1-.93-.19,11.53,11.53,0,0,1-1.23-.39l.14,1.46a10.4,10.4,0,0,0,2.6.32,6.34,6.34,0,0,0,2.16-.34,3.13,3.13,0,0,0,1.5-1,5.88,5.88,0,0,0,.85-2.36l1-5.25ZM121,19.24c-.21-.2-.28-.75.38-2.06a2.8,2.8,0,0,1,2.23-1.82,4.47,4.47,0,0,1,1,.13h0c-1,2.22-3.17,4.21-3.65,3.74Z"/><path id="Path_123" data-name="Path 123" class="cls-1" d="M28,20.79l1.74-8.72H34a7.53,7.53,0,0,1,2.45.31,2.66,2.66,0,0,1,1.27.95,3.05,3.05,0,0,1,.52,1.76,5.5,5.5,0,0,1-2.84,5,7.39,7.39,0,0,1-3.46.7Zm2.39-1.2H31.6A4.53,4.53,0,0,0,34,19.05a4,4,0,0,0,1.48-1.59A4.28,4.28,0,0,0,36,15.27a1.72,1.72,0,0,0-.84-1.52,6,6,0,0,0-2.87-.47h-.64Z"/><path id="Path_124" data-name="Path 124" class="cls-1" d="M39.42,20.79l1.27-6.47h2.06l-1.28,6.47Zm1.51-7.56.32-1.53h2L43,13.23Z"/><path id="Path_125" data-name="Path 125" class="cls-1" d="M53.27,20.79l1.29-6.47h2l-1.29,6.47Zm1.51-7.56.31-1.52h2.06l-.32,1.52Z"/><path id="Path_126" data-name="Path 126" class="cls-1" d="M62.15,20.74a5.78,5.78,0,0,1-1.37.17,2.41,2.41,0,0,1-1.59-.42,1.25,1.25,0,0,1-.49-.92,4.31,4.31,0,0,1,.09-.88l.64-3.27H58.28l.24-1.09h1.13l.22-1.1L62,13l-.27,1.33h1.58l-.22,1.09H61.49l-.64,3.14a2.87,2.87,0,0,0-.07.58.52.52,0,0,0,.26.48,1,1,0,0,0,.48.13,2.31,2.31,0,0,0,.83-.15Z"/><path id="Path_127" data-name="Path 127" class="cls-1" d="M73.44,20.79l1.86-9.3h2l-1.85,9.3Z"/><path id="Path_128" data-name="Path 128" class="cls-1" d="M90.82,20.53a19.72,19.72,0,0,1-3.91.48,4.77,4.77,0,0,1-3.08-.9,3.07,3.07,0,0,1-1.17-2.39,5.15,5.15,0,0,1,.79-2.86,6,6,0,0,1,2.3-2.19,7.08,7.08,0,0,1,3.5-.82,16.57,16.57,0,0,1,3.06.34L92,13.6c-.52-.17-.94-.28-1.25-.35a7.84,7.84,0,0,0-.88-.16,7.34,7.34,0,0,0-.81-.05,4,4,0,0,0-2.15.58,4.17,4.17,0,0,0-1.48,1.69,4.53,4.53,0,0,0-.54,2.22,2.23,2.23,0,0,0,.77,1.67,3,3,0,0,0,2,.6,4.93,4.93,0,0,0,1.22-.18l.56-2.77h2.1Z"/><path id="Path_129" data-name="Path 129" class="cls-1" d="M149.57,20.53a19.72,19.72,0,0,1-3.91.48,4.77,4.77,0,0,1-3.08-.9,3,3,0,0,1-1.16-2.39,5.06,5.06,0,0,1,.78-2.86,6,6,0,0,1,2.3-2.19,7,7,0,0,1,3.5-.82,16.57,16.57,0,0,1,3.06.34l-.27,1.41c-.53-.16-.94-.28-1.25-.35s-.6-.12-.88-.16-.55,0-.82,0a4,4,0,0,0-2.15.57,4.17,4.17,0,0,0-1.48,1.69,4.56,4.56,0,0,0-.53,2.23,2.12,2.12,0,0,0,.76,1.66,3,3,0,0,0,2,.6,4.14,4.14,0,0,0,1.22-.18l.56-2.76h2.09Z"/><path id="Path_130" data-name="Path 130" class="cls-1" d="M102.44,20.79l1.29-6.47h2L105.25,17A7,7,0,0,1,107,14.93a3,3,0,0,1,1.78-.76h.63l-.53,1.65a2.19,2.19,0,0,0-2.29.83,17.22,17.22,0,0,0-1.65,2l-.43,2.17Z"/><path id="Path_131" data-name="Path 131" class="cls-1" d="M152,20.79l1.29-6.47h2L154.86,17a7.09,7.09,0,0,1,1.71-2.07,3,3,0,0,1,1.78-.76H159l-.53,1.65a2.46,2.46,0,0,0-.66-.06,2.39,2.39,0,0,0-1.63.89,17.22,17.22,0,0,0-1.65,2l-.43,2.17Z"/><path id="Path_132" data-name="Path 132" class="cls-1" d="M134.64,20.18a10.34,10.34,0,0,1-3.68.76,4,4,0,0,1-1.57-.29,2.14,2.14,0,0,1-1-.81,2.2,2.2,0,0,1-.33-1.08,4,4,0,0,1,.63-2.25,4.89,4.89,0,0,1,1.77-1.73,4.84,4.84,0,0,1,2.35-.61,2.47,2.47,0,0,1,1.45.38,1.27,1.27,0,0,1,.55,1,2,2,0,0,1-.51,1.35A4.18,4.18,0,0,1,132.65,18a8.16,8.16,0,0,1-2.58.51,1.2,1.2,0,0,0,.49,1,1.9,1.9,0,0,0,1,.25,5.93,5.93,0,0,0,1.45-.23,9.2,9.2,0,0,0,1.89-.72Zm-4.46-2.77a3.58,3.58,0,0,0,2-.48,1.21,1.21,0,0,0,.64-1,.56.56,0,0,0-.19-.4.71.71,0,0,0-.52-.18,1.83,1.83,0,0,0-1.12.52,3,3,0,0,0-.87,1.55Z"/><path id="Path_133" data-name="Path 133" class="cls-1" d="M162.41,21a3.32,3.32,0,0,1-2.07-.61,2,2,0,0,1-.82-1.59,4.31,4.31,0,0,1,.64-2.31,4.62,4.62,0,0,1,4.14-2.36,3.42,3.42,0,0,1,2.12.61,2,2,0,0,1,.8,1.59,4.17,4.17,0,0,1-.63,2.31,4.73,4.73,0,0,1-1.72,1.75,4.81,4.81,0,0,1-2.46.61Zm.4-1.15a1.75,1.75,0,0,0,1.19-.43,3,3,0,0,0,.82-1.2,3.77,3.77,0,0,0,.29-1.59,1.47,1.47,0,0,0-.32-1,1.08,1.08,0,0,0-.86-.35,1.75,1.75,0,0,0-1.15.43,2.89,2.89,0,0,0-.83,1.2,3.91,3.91,0,0,0-.3,1.59,1.57,1.57,0,0,0,.32,1,1.1,1.1,0,0,0,.83.36Z"/><path id="Path_134" data-name="Path 134" class="cls-1" d="M172.66,20.81l.54-2.73a8.14,8.14,0,0,1-1.59,2.1,2.67,2.67,0,0,1-1.77.78,1.25,1.25,0,0,1-1.3-1.18.66.66,0,0,1,0-.14,2.84,2.84,0,0,1,.08-.77l1-4.62h2l-1,4.49a.93.93,0,0,0,0,.23c0,.22.09.32.26.32s.7-.32,1.22-.95a19.68,19.68,0,0,0,1.38-1.91l.43-2.18h2l-1.32,6.55Z"/><path id="Path_135" data-name="Path 135" class="cls-1" d="M177.05,23.17l1.79-8.92h2L180.31,17a7.82,7.82,0,0,1,1.62-2,3,3,0,0,1,2-.86,1.43,1.43,0,0,1,1.16.51,1.63,1.63,0,0,1,.46,1.1,4.63,4.63,0,0,1-.77,2.55,6,6,0,0,1-1.91,2,4.26,4.26,0,0,1-2.21.66,4.85,4.85,0,0,1-1.08-.15l-.47,2.36ZM180,18.56l-.22,1.09a2.29,2.29,0,0,0,1,.22A2,2,0,0,0,182,19.4,3.82,3.82,0,0,0,183,17.88a4.31,4.31,0,0,0,.45-1.72.58.58,0,0,0-.11-.34.34.34,0,0,0-.32-.15c-.35,0-.85.33-1.48,1A16.37,16.37,0,0,0,180,18.56Z"/><path id="Path_136" data-name="Path 136" class="cls-1" d="M21.84,12.77h-4.7a3.3,3.3,0,0,0-1,.2L5.7,17.22a.31.31,0,0,0-.23.38.34.34,0,0,0,.13.18l4.86,4.08a1.47,1.47,0,0,0,.92.36H18a.82.82,0,0,0,.73-.47L19.81,19a.33.33,0,0,0-.34-.49H17.22a1,1,0,0,0-.8.49L16,20.11a.81.81,0,0,1-.72.49h-.85a1.57,1.57,0,0,1-.93-.35l-3-2.17a.33.33,0,0,1-.07-.45.39.39,0,0,1,.17-.11L17,14.74a3.3,3.3,0,0,1,1-.2h3.18a.73.73,0,0,0,.66-.48l.3-.79a.35.35,0,0,0-.14-.46.45.45,0,0,0-.2,0Zm-6-1.15L8.74,7.7a2.64,2.64,0,0,0-1-.26l-4,0a.8.8,0,0,0-.72.49L0,16a.35.35,0,0,0,.15.47.34.34,0,0,0,.2,0H4.18a3.3,3.3,0,0,0,1-.2l10.6-4.25c.28-.1.29-.31,0-.45Zm-5,.29L5.79,14a3,3,0,0,1-1,.21H4.36A.35.35,0,0,1,4,13.91a.32.32,0,0,1,0-.19L5.42,10a.83.83,0,0,1,.72-.5h.39a2.55,2.55,0,0,1,1,.25l3.33,1.75c.28.13.25.34,0,.45Z"/></g><rect class="cls-2" x="0.04" width="185.45" height="30.66"/></g></g></svg>