<svg xmlns="http://www.w3.org/2000/svg" viewBox="0 0 30.66 30.66"><defs><style>.cls-1{fill:#fff;}.cls-2{fill:none;}</style></defs><title>logo_angel</title><g id="Layer_2" data-name="Layer 2"><g id="Layer_1-2" data-name="Layer 1"><path class="cls-1" d="M22,13.27a3.33,3.33,0,0,1,2.42,1.43,7.14,7.14,0,0,1,.72,3.58,11.1,11.1,0,0,1-3,8,10,10,0,0,1-7.52,3.13,9.78,9.78,0,0,1-3.49-.62A9.49,9.49,0,0,1,6.2,24.28a8.68,8.68,0,0,1-.63-3,4.45,4.45,0,0,1,.72-2.6,3.88,3.88,0,0,1,2.24-1.25,10.09,10.09,0,0,1-.45-1.17,2.63,2.63,0,0,1-.18-.71,2.62,2.62,0,0,1,.9-1.79,2.43,2.43,0,0,1,1.7-.9,1.93,1.93,0,0,1,.71.09,2.78,2.78,0,0,1,.9.45C11.3,10.77,10.5,8.53,10.05,7a12.33,12.33,0,0,1-.63-3.14A2.53,2.53,0,0,1,10.05,2a2.17,2.17,0,0,1,1.7-.71c1.16,0,2.69,2.68,4.56,8.14.36.9.54,1.61.72,2.15.18-.36.36-1,.63-1.7,1.88-5.37,3.49-8,4.74-8A2.14,2.14,0,0,1,24,2.44a2.89,2.89,0,0,1,.63,1.79A12.93,12.93,0,0,1,24,7.36C23.48,8.89,22.85,10.86,22,13.27ZM8.17,21.15a5.5,5.5,0,0,1,.72,1c.8,1.17,1.61,1.79,2.32,1.79a.82.82,0,0,0,.63-.27.78.78,0,0,0,.27-.44,2.19,2.19,0,0,0-.36-1,13.16,13.16,0,0,0-1.07-1.52c-.54-.63-1-1.16-1.26-1.43a1.83,1.83,0,0,0-.8-.45,1.69,1.69,0,0,0-1.26.72,2.78,2.78,0,0,0-.53,1.7A4.89,4.89,0,0,0,7.19,23a7.4,7.4,0,0,0,1.16,2,8.77,8.77,0,0,0,2.86,2.23A8.57,8.57,0,0,0,15,28a8.07,8.07,0,0,0,6.27-2.77,10.07,10.07,0,0,0,2.5-7.08,11.49,11.49,0,0,0-.18-2.05,1.54,1.54,0,0,0-.62-1.08,7.89,7.89,0,0,0-3.05-1.16,20.69,20.69,0,0,0-4.74-.54,1.42,1.42,0,0,0-1,.27,1.1,1.1,0,0,0-.27.81,1.87,1.87,0,0,0,1.43,1.87,14.61,14.61,0,0,0,4.74.63h.81a.69.69,0,0,1,.45.18,1.3,1.3,0,0,1,.18.63,4.26,4.26,0,0,1-1.35.71,6.64,6.64,0,0,0-3.4,2.87,4.6,4.6,0,0,0-.71,2.23,5.81,5.81,0,0,0,.26,1.53,7.76,7.76,0,0,1,.27,1.07v.36a1.62,1.62,0,0,1-1.34-1,5,5,0,0,1-.45-2.5v-.18c-.09.09-.18.18-.27.18s-.17.09-.35.09h-.36c-.09,0-.18-.09-.36-.09,0,.18.09.27.09.45v.35A1.78,1.78,0,0,1,13,25.09a1.82,1.82,0,0,1-1.34.53,3.76,3.76,0,0,1-2.51-1.16A3.4,3.4,0,0,1,7.9,22.13c0-.18,0-.27.09-.36C8,21.33,8.08,21.24,8.17,21.15ZM14,21.6a.93.93,0,0,0,.62-.27,1,1,0,0,0,.27-.63,6.49,6.49,0,0,0-.53-1.7A14.25,14.25,0,0,0,13,16.4,4.94,4.94,0,0,0,11.84,15a1.42,1.42,0,0,0-1.07-.45c-.27,0-.54.18-.9.54a1.25,1.25,0,0,0-.45,1,4.9,4.9,0,0,0,.45,1.43,20.12,20.12,0,0,0,1.25,2,11.59,11.59,0,0,0,1.61,1.79A4.58,4.58,0,0,0,14,21.6Zm1.88-9.31-2.15-6a14.46,14.46,0,0,0-1.25-3c-.27-.45-.54-.72-.9-.72a.82.82,0,0,0-.63.27,1.17,1.17,0,0,0-.35.89,12.69,12.69,0,0,0,.71,3.05c.45,1.43,1.17,3.4,2.06,5.73.09-.18.18-.27.36-.27a1.14,1.14,0,0,1,.54-.09h.44A11.06,11.06,0,0,0,15.87,12.29ZM18,18.1a9.9,9.9,0,0,1-1.62-.17A6.8,6.8,0,0,1,15,17.57c.18.45.36.8.54,1.25a6.75,6.75,0,0,1,.36,1.25,11.77,11.77,0,0,1,1-1.07C17.3,18.64,17.66,18.37,18,18.1Zm2.59-5.19c.9-2.32,1.52-4.29,2.06-5.81a17.31,17.31,0,0,0,.72-2.78,1.47,1.47,0,0,0-.27-.89.82.82,0,0,0-.63-.27c-.36,0-.72.27-1.07.89a15.42,15.42,0,0,0-1.26,2.87l-2,5.55Z"/><rect class="cls-2" width="30.66" height="30.66"/></g></g></svg>