<svg xmlns="http://www.w3.org/2000/svg" viewBox="0 0 125.56 30.66"><defs><style>.cls-1{fill:#fff;}.cls-2{fill:none;}</style></defs><title>logo_dgv</title><g id="Layer_2" data-name="Layer 2"><g id="Layer_1-2" data-name="Layer 1"><g id="Group_109" data-name="Group 109"><path id="Path_950" data-name="Path 950" class="cls-1" d="M42.19,11.16a8,8,0,0,0-2.53-.31H35.24a.16.16,0,0,0-.09.07l-1.81,8.94a.19.19,0,0,0,0,.08.11.11,0,0,0,.07,0h4.1a7.47,7.47,0,0,0,3.6-.73,5.77,5.77,0,0,0,3-5.2,3.18,3.18,0,0,0-.55-1.84A3.1,3.1,0,0,0,42.19,11.16Zm-4.95,1.09h.6a6.26,6.26,0,0,1,2.9.48,1.66,1.66,0,0,1,.82,1.5,4.46,4.46,0,0,1-.52,2.2A4,4,0,0,1,39.54,18a4.75,4.75,0,0,1-2.39.55H36Z"/><path id="Path_951" data-name="Path 951" class="cls-1" d="M55.29,11a16.8,16.8,0,0,0-3.16-.35,7.55,7.55,0,0,0-3.64.84,6.46,6.46,0,0,0-2.39,2.28,5.29,5.29,0,0,0-.83,3,3.21,3.21,0,0,0,1.23,2.52,5,5,0,0,0,3.21.93,19.56,19.56,0,0,0,4-.49s0,0,.07-.07l.77-3.76a.14.14,0,0,0,0-.07.08.08,0,0,0-.07,0H52.33a.13.13,0,0,0-.09.07l-.56,2.79a4.39,4.39,0,0,1-1.19.17,3,3,0,0,1-2-.6,2.26,2.26,0,0,1-.75-1.64,4.63,4.63,0,0,1,.55-2.25,4.32,4.32,0,0,1,1.5-1.7A4,4,0,0,1,52,12a7.37,7.37,0,0,1,.82.05l.9.15c.31.07.75.18,1.27.35H55a.09.09,0,0,0,0-.06l.28-1.44a.14.14,0,0,0,0-.06S55.31,11,55.29,11Z"/><path id="Path_952" data-name="Path 952" class="cls-1" d="M69.8,10.91a.09.09,0,0,0-.08,0H68a.08.08,0,0,0-.07,0l-4.16,6.66-1.63-6.65a.09.09,0,0,0-.09-.07H59.76l-.07,0a.08.08,0,0,0,0,.07l2.17,8.94s0,.07.09.07h2.25a.11.11,0,0,0,.07,0L69.79,11A.1.1,0,0,0,69.8,10.91Z"/><path id="Path_953" data-name="Path 953" class="cls-1" d="M75.83,17.8a8.82,8.82,0,0,1-1.93.73,7.29,7.29,0,0,1-1.46.24,2,2,0,0,1-1-.26,1.11,1.11,0,0,1-.47-.89,8.19,8.19,0,0,0,2.59-.53A4.49,4.49,0,0,0,75.31,16a2.11,2.11,0,0,0,.54-1.44,1.43,1.43,0,0,0-.6-1.1,2.57,2.57,0,0,0-1.53-.4,5,5,0,0,0-4.31,2.45,4.25,4.25,0,0,0-.67,2.35A2.45,2.45,0,0,0,69.09,19a2.09,2.09,0,0,0,1.08.86,4.35,4.35,0,0,0,1.64.31,10.76,10.76,0,0,0,1.7-.17,9.81,9.81,0,0,0,2.11-.62s.06,0,.06-.05L76,17.91s0-.07,0-.09S75.87,17.78,75.83,17.8Zm-2.75-3.41a.67.67,0,0,1,.47.15.49.49,0,0,1,.17.34c0,.33-.2.66-.64,1a3.3,3.3,0,0,1-1.94.47A2.93,2.93,0,0,1,72,14.88,1.77,1.77,0,0,1,73.08,14.39Z"/><path id="Path_954" data-name="Path 954" class="cls-1" d="M83.86,13a3.26,3.26,0,0,0-2,.8,8.27,8.27,0,0,0-1.54,1.75l.46-2.3a.1.1,0,0,0,0-.07l-.07,0H78.59a.12.12,0,0,0-.09.08l-1.35,6.64a.12.12,0,0,0,0,.08.08.08,0,0,0,.07,0h2.1a.13.13,0,0,0,.09-.07l.44-2.19a18.12,18.12,0,0,1,1.57-1.93c.58-.64,1-1,1.35-1,.11,0,.22,0,.22.25a1.94,1.94,0,0,1,0,.24l-.91,4.54a.08.08,0,0,0,.09.11h2.1a.11.11,0,0,0,.09-.07l1-4.67a3.06,3.06,0,0,0,.07-.8,1.39,1.39,0,0,0-.46-1.06A1.61,1.61,0,0,0,83.86,13Z"/><path id="Path_955" data-name="Path 955" class="cls-1" d="M92.24,13.17H90.72L91,11.91a.14.14,0,0,0,0-.07s0,0-.07,0l-2.16.24a.07.07,0,0,0-.07.07l-.22,1.06H87.35a.1.1,0,0,0-.09.07L87,14.37a.12.12,0,0,0,0,.08.09.09,0,0,0,.07,0h1.08l-.66,3.25a5.76,5.76,0,0,0-.11.93,1.4,1.4,0,0,0,.53,1,2.51,2.51,0,0,0,1.68.45A5.22,5.22,0,0,0,91,19.93s.06,0,.06-.07l.23-1.17s0-.05,0-.07a.15.15,0,0,0-.09,0,3,3,0,0,1-.82.15.91.91,0,0,1-.46-.13.44.44,0,0,1-.22-.4,2.78,2.78,0,0,1,.07-.57l.64-3.15H92a.12.12,0,0,0,.09-.08l.22-1.11a.08.08,0,0,0,0-.07C92.29,13.19,92.27,13.17,92.24,13.17Z"/><path id="Path_956" data-name="Path 956" class="cls-1" d="M100.9,13.17H98.79a.13.13,0,0,0-.1.07l-.43,2.19a20.49,20.49,0,0,1-1.4,1.92c-.66.78-1,.95-1.2.95s-.19,0-.2-.26a.67.67,0,0,1,0-.2l1-4.54a.12.12,0,0,0,0-.08.09.09,0,0,0-.07,0H94.28a.13.13,0,0,0-.1.07l-1,4.67a5.44,5.44,0,0,0-.09.8,1.4,1.4,0,0,0,.44,1.06,1.46,1.46,0,0,0,1,.35,3,3,0,0,0,1.9-.8,8.74,8.74,0,0,0,1.4-1.7l-.46,2.26a.19.19,0,0,0,0,.07.13.13,0,0,0,.07,0h2.1a.15.15,0,0,0,.1-.07L101,13.29a.19.19,0,0,0,0-.07S100.92,13.17,100.9,13.17Z"/><path id="Path_957" data-name="Path 957" class="cls-1" d="M108.93,13.15s0,0-.06,0a3.2,3.2,0,0,0-.62-.09,3.13,3.13,0,0,0-1.88.8,7.19,7.19,0,0,0-1.55,1.75l.46-2.3a.19.19,0,0,0,0-.07l-.07,0h-2.1a.14.14,0,0,0-.1.08l-1.34,6.64a.12.12,0,0,0,0,.08.09.09,0,0,0,.07,0h2.1a.11.11,0,0,0,.09-.07l.44-2.19a17.89,17.89,0,0,1,1.68-2,2.53,2.53,0,0,1,1.62-.89,1.4,1.4,0,0,1,.57.13h.07s0,0,0-.06l.57-1.7A.07.07,0,0,0,108.93,13.15Z"/><path id="Path_958" data-name="Path 958" class="cls-1" d="M115.88,17.8a8.82,8.82,0,0,1-1.93.73,7.29,7.29,0,0,1-1.46.24,1.93,1.93,0,0,1-1-.26,1.08,1.08,0,0,1-.47-.89,8.25,8.25,0,0,0,2.59-.53A4.38,4.38,0,0,0,115.35,16a2.12,2.12,0,0,0,.55-1.44,1.43,1.43,0,0,0-.6-1.1,2.59,2.59,0,0,0-1.53-.4,5,5,0,0,0-4.31,2.45,4.17,4.17,0,0,0-.67,2.35,2.35,2.35,0,0,0,.35,1.15,2.11,2.11,0,0,0,1.07.86,4.38,4.38,0,0,0,1.64.31,10.76,10.76,0,0,0,1.7-.17,9.73,9.73,0,0,0,2.12-.62s0,0,0-.05l.28-1.39a.09.09,0,0,0,0-.09S115.92,17.78,115.88,17.8Zm-2.75-3.41a.68.68,0,0,1,.47.15.44.44,0,0,1,.16.34c0,.33-.2.66-.64,1a3.27,3.27,0,0,1-1.93.47,2.86,2.86,0,0,1,.84-1.44,1.72,1.72,0,0,1,1.1-.49Z"/><path id="Path_959" data-name="Path 959" class="cls-1" d="M123.71,13.3a9.11,9.11,0,0,0-2.26-.3,3.81,3.81,0,0,0-2.39.64,1.73,1.73,0,0,0-.75,1.39,1.61,1.61,0,0,0,.23.77,5.22,5.22,0,0,0,1.08,1.07l.55.44a2.5,2.5,0,0,1,.6.57.66.66,0,0,1,.09.31.49.49,0,0,1-.26.45,1.2,1.2,0,0,1-.71.2,6.79,6.79,0,0,1-2.5-.6h-.07s0,0,0,.06L117,19.57s0,.1,0,.1a9.66,9.66,0,0,0,2.78.43,4.2,4.2,0,0,0,2.4-.58,1.73,1.73,0,0,0,.85-1.52,1.77,1.77,0,0,0-.33-.91,5.22,5.22,0,0,0-.91-.85l-.62-.48a2.89,2.89,0,0,1-.59-.51.57.57,0,0,1-.13-.33.51.51,0,0,1,.22-.42,1.29,1.29,0,0,1,.79-.18,5.32,5.32,0,0,1,1.88.4h.07a.09.09,0,0,0,0-.05l.26-1.25C123.78,13.35,123.76,13.31,123.71,13.3Z"/></g><g id="Group_112" data-name="Group 112"><g id="Group_111" data-name="Group 111"><g id="Group_110" data-name="Group 110"><path id="Path_960" data-name="Path 960" class="cls-1" d="M12.6,23.68c5.91-.42,11.88-4,11.88-8.32,0-4.64-6.75-8.38-13-8.38s-9.69,3.74-9.69,8.36a9.91,9.91,0,0,0,.09,1.33A.67.67,0,0,0,2,17a.77.77,0,0,0,.4.05,6.57,6.57,0,0,0,3-.75c.81-.44,8.32-4.89,8.32-4.89L13,11.16l4-.47s-8.28,6.36-10.34,8a11.88,11.88,0,0,1-2.85,1.48c-.13.05-.18.09-.2.16a.3.3,0,0,0,.07.31,7.83,7.83,0,0,0,1.77,1.53.5.5,0,0,0,.39.11c.07,0,.09-.22.12-.42A4.87,4.87,0,0,1,7.62,19C9,17.8,17.78,10.76,17.78,10.76l1.64,2.52L18,12.77l-5.27,6.35a4,4,0,0,0-.88,4.1.81.81,0,0,0,.24.34A1,1,0,0,0,12.6,23.68Z"/></g></g></g><rect class="cls-2" width="125.56" height="30.66"/></g></g></svg>