<svg xmlns="http://www.w3.org/2000/svg" viewBox="0 0 127.15 30.66"><defs><style>.cls-1{fill:#fff;}.cls-2{fill:none;}</style></defs><title>logo_onl</title><g id="Layer_2" data-name="Layer 2"><g id="Layer_1-2" data-name="Layer 1"><g id="Layer_1-3" data-name="Layer 1"><path id="Path_137" data-name="Path 137" class="cls-1" d="M10.7,9.24a3.57,3.57,0,0,0,.54,3.28c.56.92,1.52,2.38,2.4,2.08s1.57-1.68,2-2.52a2.37,2.37,0,0,0,.3-2c-.2-.41,2.31,1.21,2,1.2s-.73,0-1.55.91-1.6,2.24-1.44,3,1.74.46,2.52.27c.94-.23,1.63-.62,1.77-1.44.1-.59.8,3,.68,2.9s-.37-.11-.6-.36a4.81,4.81,0,0,0-3.09-.25c-1.54.27-1.6,1.12-1.07,1.64a2.49,2.49,0,0,0,1.78,1c.42,0-1,1.34-1,1.09a1.73,1.73,0,0,0-.52-1.35c-.67-.76-1.38-1.06-1.72-.82s-.51,1.55-.59,3.35c-.06,1.49,0,3.1.68,3.67.39.31-2.53.06-2.26-.1.43-.26.74-1.34.89-2.55a10.08,10.08,0,0,0,.08-3.69c-.31-.8-1-.8-1.75-.57-1,.37-1.94,1-2,2.08,0,.85-2-3.29-1.64-2.93a2.69,2.69,0,0,0,2.52.4c.83-.19,2-.56,2.38-1.55S11.4,14.34,11,13.88a4,4,0,0,0-3.9-1.39S11,8.63,10.7,9.24Z"/><path id="Path_138" data-name="Path 138" class="cls-1" d="M11.11,7.86A4.86,4.86,0,1,1,6.25,3a4.87,4.87,0,0,1,4.86,4.86Z"/><path id="Path_139" data-name="Path 139" class="cls-1" d="M25.48,15.07a3.34,3.34,0,1,1-3.34-3.34h0A3.33,3.33,0,0,1,25.48,15.07Z"/><path id="Path_140" data-name="Path 140" class="cls-1" d="M14.33,25.84a1.83,1.83,0,1,1-.53-1.3A1.84,1.84,0,0,1,14.33,25.84Z"/><path id="Path_141" data-name="Path 141" class="cls-1" d="M13.64,14.61a1,1,0,0,1-.89-.21,2.51,2.51,0,0,0,2.87,1.25c-.34-.05-.61-.18-.67-.47A2.05,2.05,0,0,1,15.21,14l-.51-.25A2.4,2.4,0,0,1,13.64,14.61Z"/><path id="Path_142" data-name="Path 142" class="cls-1" d="M15.15,18c-.42-.43-.47-1.05.33-1.43A2.64,2.64,0,0,0,13.61,18l.07-.07c.28-.2.83,0,1.39.47l.27-.23Z"/><path id="Path_143" data-name="Path 143" class="cls-1" d="M12,15.14A1.19,1.19,0,0,1,12,16a2.37,2.37,0,0,1-1.56,1.32l.25.7h0c.7-.24,1.43-.24,1.75.57,0,0,0,.09,0,.14h.23A4,4,0,0,0,12,15.15Z"/><path id="Path_144" data-name="Path 144" class="cls-1" d="M9.64,17.56a2.63,2.63,0,0,1-2.52-.4c-.38-.36,1.62,3.78,1.64,2.93,0-1.07.94-1.71,2-2.08l.09,0c-.09-.21-.18-.47-.27-.7a7.3,7.3,0,0,1-.91.27Z"/><path id="Path_145" data-name="Path 145" class="cls-1" d="M16.39,12.21c.82-.94,1.28-.94,1.55-.91s-2.23-1.61-2-1.2a2.34,2.34,0,0,1-.29,2,9.74,9.74,0,0,1-1,1.69l.51.31A7.3,7.3,0,0,1,16.39,12.21Z"/><path id="Path_146" data-name="Path 146" class="cls-1" d="M15.41,18.72a1.75,1.75,0,0,1,.52,1.35c0,.25,1.43-1.11,1-1.09a2.28,2.28,0,0,1-1.68-.91l-.32.2A4,4,0,0,1,15.41,18.72Z"/><path id="Path_147" data-name="Path 147" class="cls-1" d="M20,9.4a2.2,2.2,0,1,1-.65-1.57A2.21,2.21,0,0,1,20,9.4Z"/><path id="Path_148" data-name="Path 148" class="cls-1" d="M18,19.89a1.12,1.12,0,1,1-1.12-1.12A1.12,1.12,0,0,1,18,19.89Z"/><path id="Path_149" data-name="Path 149" class="cls-1" d="M8.9,20.13a3.57,3.57,0,1,1-1-2.55A3.58,3.58,0,0,1,8.9,20.13Z"/><path id="Path_150" data-name="Path 150" class="cls-1" d="M36.28,17.63a2.53,2.53,0,0,1-3.52,0c-.65-.66-.64-1.41-.64-2.68s0-2,.64-2.68a2.51,2.51,0,0,1,3.52,0c.66.65.64,1.4.64,2.68S36.94,17,36.28,17.63Zm-.76-4.75a1.41,1.41,0,0,0-2,0c-.33.35-.39.73-.39,2.07s.06,1.71.39,2.07a1.42,1.42,0,0,0,2,0c.32-.36.39-.73.39-2.07S35.84,13.23,35.52,12.88Z"/><path id="Path_151" data-name="Path 151" class="cls-1" d="M42.79,17.92a1.69,1.69,0,0,1-1.15.42,1.47,1.47,0,0,1-1.25-.55V20.2h-1V13.53h.94V14a1.44,1.44,0,0,1,1.26-.56,1.63,1.63,0,0,1,1.17.42,2.87,2.87,0,0,1,.54,2A2.91,2.91,0,0,1,42.79,17.92Zm-1.41-3.59c-.86,0-1,.73-1,1.57s.13,1.58,1,1.58,1-.73,1-1.58-.11-1.57-1-1.57Z"/><path id="Path_152" data-name="Path 152" class="cls-1" d="M46.45,16.18a1.16,1.16,0,0,0,1,1.32.81.81,0,0,0,.22,0A1.46,1.46,0,0,0,48.8,17l.61.57a2.29,2.29,0,0,1-1.79.74c-1.17,0-2.11-.63-2.11-2.44,0-1.53.8-2.42,2-2.42a2,2,0,0,1,2,2.28v.42Zm2-1.31a1,1,0,0,0-.93-.6,1,1,0,0,0-.94.6,1.64,1.64,0,0,0-.13.65h2.14a1.58,1.58,0,0,0-.14-.65Z"/><path id="Path_153" data-name="Path 153" class="cls-1" d="M54.81,18.28V15.39A.91.91,0,0,0,54,14.34a.55.55,0,0,0-.18,0,.94.94,0,0,0-1,.9.85.85,0,0,0,0,.16v2.89h-.95V13.53h.93V14a1.74,1.74,0,0,1,1.27-.54,1.65,1.65,0,0,1,1.17.44,1.74,1.74,0,0,1,.47,1.34v3Z"/><path id="Path_154" data-name="Path 154" class="cls-1" d="M65.94,18.28l-3.07-4.69v4.69h-1V11.61h.94l3.08,4.69V11.61h1v6.67Z"/><path id="Path_155" data-name="Path 155" class="cls-1" d="M70.33,16.18a1.17,1.17,0,0,0,1,1.32.83.83,0,0,0,.22,0A1.4,1.4,0,0,0,72.69,17l.61.57a2.25,2.25,0,0,1-1.78.74c-1.19,0-2.14-.63-2.14-2.44,0-1.53.8-2.43,2-2.43a2,2,0,0,1,2,2.29v.42Zm2-1.31a1,1,0,0,0-1.88,0,1.47,1.47,0,0,0-.12.65h2.14a1.62,1.62,0,0,0-.14-.65Z"/><path id="Path_156" data-name="Path 156" class="cls-1" d="M77.22,18.28a1.23,1.23,0,0,1-1.3-1.17.38.38,0,0,1,0-.15V14.35h-.55v-.73h.55V12.17h1v1.45h.92v.73h-.92v2.57a.48.48,0,0,0,.41.55h.51v.81Z"/><path id="Path_157" data-name="Path 157" class="cls-1" d="M84.78,18.28H84L82.85,15l-1.1,3.32h-.83l-1.47-4.75h1l.92,3.35,1.11-3.35h.74l1.09,3.35.92-3.35h1Z"/><path id="Path_158" data-name="Path 158" class="cls-1" d="M91.4,17.78a2.07,2.07,0,0,1-2.84,0A2.5,2.5,0,0,1,88,15.9,2.47,2.47,0,0,1,88.56,14a2.07,2.07,0,0,1,2.84,0A2.47,2.47,0,0,1,92,15.9,2.51,2.51,0,0,1,91.4,17.78Zm-.72-3.18a1.06,1.06,0,0,0-1.41,0,1.83,1.83,0,0,0-.33,1.3,1.86,1.86,0,0,0,.33,1.31,1,1,0,0,0,.7.28,1,1,0,0,0,.71-.28A1.86,1.86,0,0,0,91,15.9a1.83,1.83,0,0,0-.33-1.3Z"/><path id="Path_159" data-name="Path 159" class="cls-1" d="M97,14.64a.89.89,0,0,0-.71-.31,1,1,0,0,0-.94,1v3h-1V13.53h.94v.52a1.59,1.59,0,0,1,1.27-.58,1.49,1.49,0,0,1,1.13.45Z"/><path id="Path_160" data-name="Path 160" class="cls-1" d="M102.6,18.28l-1.33-2.19-.7.8v1.4h-1V11.61h1v4.11l1.85-2.19h1.17L102,15.41l1.85,2.89Z"/><path id="Path_161" data-name="Path 161" class="cls-1" d="M109.36,18.28V11.61h1v5.76h3.21v.91Z"/><path id="Path_162" data-name="Path 162" class="cls-1" d="M118.31,18.28v-.43a1.54,1.54,0,0,1-1.26.49,1.68,1.68,0,0,1-1.28-.44,1.44,1.44,0,0,1-.37-1c0-.79.55-1.36,1.64-1.36h1.26v-.34c0-.6-.3-.89-1-.89a1.12,1.12,0,0,0-1,.46l-.63-.59a1.93,1.93,0,0,1,1.71-.68c1.3,0,1.95.55,1.95,1.64v3.16Zm0-2.11h-1.11c-.56,0-.85.25-.85.69s.27.69.87.69a1.13,1.13,0,0,0,.89-.28.92.92,0,0,0,.2-.7Z"/><path id="Path_163" data-name="Path 163" class="cls-1" d="M125.2,17.92a1.63,1.63,0,0,1-1.17.42,1.48,1.48,0,0,1-1.25-.56v.5h-.93V11.61h1V14a1.46,1.46,0,0,1,1.25-.53,1.58,1.58,0,0,1,1.15.42,2.86,2.86,0,0,1,.53,2A2.8,2.8,0,0,1,125.2,17.92Zm-1.41-3.59c-.86,0-1,.73-1,1.57s.13,1.58,1,1.58,1-.73,1-1.58-.12-1.57-1-1.57Z"/></g><rect class="cls-2" width="127.15" height="30.66"/></g></g></svg>