<svg id="Component_35_40" data-name="Component 35 – 40" xmlns="http://www.w3.org/2000/svg" xmlns:xlink="http://www.w3.org/1999/xlink" width="130" height="136.032" viewBox="0 0 130 136.032">
  <defs>
    <radialGradient id="radial-gradient" cx="0.765" cy="-0.242" r="1.209" gradientTransform="translate(-102.235) scale(0.71 1)" gradientUnits="objectBoundingBox">
      <stop offset="0.544" stop-color="#353186"/>
      <stop offset="1" stop-color="#0573b5"/>
    </radialGradient>
    <radialGradient id="radial-gradient-2" cx="1.271" cy="1.406" r="1.402" gradientTransform="translate(-6.126) scale(0.989 1)" xlink:href="#radial-gradient"/>
    <radialGradient id="radial-gradient-3" cx="-0.642" cy="0.709" r="1.087" gradientTransform="translate(202.675) scale(1.473 1)" xlink:href="#radial-gradient"/>
  </defs>
  <g id="Rectangle_100" data-name="Rectangle 100" fill="#fff" stroke="#707070" stroke-width="1">
    <rect width="130" height="136.032" rx="8" stroke="none"/>
    <rect x="0.5" y="0.5" width="129" height="135.032" rx="7.5" fill="none"/>
  </g>
  <g id="Group_124" data-name="Group 124">
    <g id="Group_70" data-name="Group 70" transform="translate(-644.759 -1488.502)">
      <g id="Group_69" data-name="Group 69" transform="translate(666 1504)">
        <g id="Group_67" data-name="Group 67" transform="translate(11.636)">
          <path id="Path_323" data-name="Path 323" d="M20.514,6.838c-1.38,2.943-.093,6.272,1.409,8.71s4.036,6.287,6.371,5.506,4.146-4.448,5.2-6.668c1.036-2.17,1.451-3.938.788-5.281-.528-1.073,6.12,3.206,5.389,3.172s-1.925-.074-4.117,2.428-4.232,5.911-3.8,7.873,4.586,1.259,6.68.729c2.482-.626,4.3-1.628,4.667-3.8.268-1.564,2.131,8.082,1.814,7.662-.3-.417-.987-.287-1.6-.953-.582-.633-4.122-1.387-8.187-.668S30.9,28.517,32.3,29.926s2.831,2.818,4.736,2.7c1.112-.071-2.725,3.542-2.693,2.887a4.575,4.575,0,0,0-1.372-3.592c-1.763-2.011-3.65-2.789-4.564-2.143-1.088.771-1.348,4.08-1.547,8.855-.172,3.955-.13,8.209,1.79,9.714,1.036.813-6.7.16-5.98-.263,1.149-.685,1.961-3.555,2.354-6.761s1.036-7.63.211-9.749-2.764-2.155-4.625-1.5c-2.757.965-5.153,2.676-5.222,5.494-.061,2.254-5.369-8.7-4.365-7.765,2.042,1.9,4.65,1.517,6.687,1.056,2.178-.493,5.376-1.483,6.294-4.085s-1.677-4.416-2.838-5.637c-2.953-3.1-6.891-4.686-10.323-3.69C10.842,15.442,21.253,5.222,20.514,6.838Z" transform="translate(4.138 9.696)" fill="#0073be"/>
          <path id="Path_324" data-name="Path 324" d="M30.473,12.871A12.866,12.866,0,1,1,17.6,0,12.866,12.866,0,0,1,30.473,12.871Z" transform="translate(-4.74)" fill="#0073be"/>
          <path id="Path_325" data-name="Path 325" d="M41.2,18.258a8.844,8.844,0,1,1-8.835-8.843A8.839,8.839,0,0,1,41.2,18.258Z" transform="translate(22.575 13.698)" fill="#0073be"/>
          <path id="Path_326" data-name="Path 326" d="M24.465,27.523A4.867,4.867,0,1,1,19.6,22.652,4.86,4.86,0,0,1,24.465,27.523Z" transform="translate(9.796 32.957)" fill="#0073be"/>
          <path id="Path_327" data-name="Path 327" d="M19.346,13.95a2.61,2.61,0,0,1-2.354-.545,6.643,6.643,0,0,0,7.6,3.307c-.911-.135-1.62-.493-1.78-1.237a5.477,5.477,0,0,1,.675-3.253l-1.345-.675A6.292,6.292,0,0,1,19.346,13.95Z" transform="translate(13.086 16.8)" fill="url(#radial-gradient)"/>
          <path id="Path_328" data-name="Path 328" d="M22,18.385c-1.112-1.132-1.225-2.8.874-3.788A6.993,6.993,0,0,0,17.92,18.4a1.079,1.079,0,0,1,.187-.169c.763-.543,2.209-.076,3.7,1.262l.7-.6C22.341,18.731,22.167,18.557,22,18.385Z" transform="translate(14.436 21.238)" fill="url(#radial-gradient-2)"/>
          <path id="Path_329" data-name="Path 329" d="M18.592,13.1a3.172,3.172,0,0,1,.061,2.313c-.638,1.819-2.4,2.853-4.134,3.471l.67,1.853.069-.025c1.861-.653,3.793-.611,4.625,1.5.042.12.086.25.13.385l.584.007a10.771,10.771,0,0,0,.378-2.8A10.619,10.619,0,0,0,18.592,13.1Z" transform="translate(9.488 19.055)" fill="url(#radial-gradient-3)"/>
          <path id="Path_330" data-name="Path 330" d="M17.677,16.362c-2.038.462-4.645.844-6.687-1.056-1-.935,4.3,10.019,4.365,7.765.069-2.818,2.465-4.529,5.222-5.494.081-.025.15-.049.223-.071-.223-.562-.479-1.235-.714-1.851A17.685,17.685,0,0,1,17.677,16.362Z" transform="translate(4.169 22.187)" fill="#32328c"/>
          <path id="Path_331" data-name="Path 331" d="M23.643,13.361c2.192-2.5,3.4-2.47,4.117-2.428s-5.916-4.245-5.389-3.172c.663,1.343.248,3.11-.788,5.281A25.867,25.867,0,0,1,19.03,17.5l1.335.83A19.865,19.865,0,0,1,23.643,13.361Z" transform="translate(16.051 11.041)" fill="#32328c"/>
          <path id="Path_332" data-name="Path 332" d="M20.584,17.971a4.575,4.575,0,0,1,1.372,3.592c-.032.655,3.805-2.958,2.693-2.887-1.787.115-3.152-1.115-4.47-2.425l-.825.535A10.362,10.362,0,0,1,20.584,17.971Z" transform="translate(16.522 23.642)" fill="#32328c"/>
          <path id="Path_333" data-name="Path 333" d="M31.726,10.378a5.867,5.867,0,1,1-5.867-5.862A5.866,5.866,0,0,1,31.726,10.378Z" transform="translate(17.449 6.57)" fill="#32328c"/>
          <path id="Path_334" data-name="Path 334" d="M26.185,19.989a2.979,2.979,0,1,1-2.98-2.98A2.979,2.979,0,0,1,26.185,19.989Z" transform="translate(17.792 24.747)" fill="#32328c"/>
          <path id="Path_335" data-name="Path 335" d="M24.071,24.088A9.486,9.486,0,1,1,14.585,14.6,9.485,9.485,0,0,1,24.071,24.088Z" transform="translate(-4.218 21.238)" fill="#32328c"/>
        </g>
        <g id="Group_68" data-name="Group 68" transform="translate(0 71.996)">
          <path id="Path_336" data-name="Path 336" d="M3.749,34.8a2.169,2.169,0,0,1-1.588.643A2.15,2.15,0,0,1,.582,34.8C-.007,34.207,0,33.54,0,32.383s-.007-1.824.582-2.413a2.15,2.15,0,0,1,1.579-.643,2.169,2.169,0,0,1,1.588.643c.589.589.574,1.257.574,2.413S4.338,34.207,3.749,34.8Zm-.692-4.279a1.225,1.225,0,0,0-.9-.371,1.224,1.224,0,0,0-.894.371c-.3.322-.356.658-.356,1.866s.059,1.544.356,1.866a1.224,1.224,0,0,0,.894.371,1.225,1.225,0,0,0,.9-.371c.295-.322.354-.658.354-1.866S3.351,30.839,3.056,30.518Z" transform="translate(0 -29.327)"/>
          <path id="Path_337" data-name="Path 337" d="M5.705,34.034a1.468,1.468,0,0,1-1.038.381,1.332,1.332,0,0,1-1.124-.491v2.17H2.683v-6.01h.844v.457a1.308,1.308,0,0,1,1.129-.508,1.489,1.489,0,0,1,1.048.381,2.554,2.554,0,0,1,.481,1.807A2.573,2.573,0,0,1,5.705,34.034ZM4.438,30.8c-.776,0-.9.658-.9,1.419s.12,1.426.9,1.426.886-.668.886-1.426S5.214,30.8,4.438,30.8Z" transform="translate(3.904 -28.301)"/>
          <path id="Path_338" data-name="Path 338" d="M5.76,32.472a1.054,1.054,0,0,0,1.09,1.2,1.278,1.278,0,0,0,1.038-.439l.547.516a2,2,0,0,1-1.6.668c-1.073,0-1.925-.567-1.925-2.195,0-1.385.717-2.187,1.814-2.187a1.82,1.82,0,0,1,1.817,2.06v.381Zm1.807-1.181a.881.881,0,0,0-.844-.54.892.892,0,0,0-.852.54,1.382,1.382,0,0,0-.11.582H7.685A1.308,1.308,0,0,0,7.567,31.291Z" transform="translate(7.141 -28.301)"/>
          <path id="Path_339" data-name="Path 339" d="M9.871,34.362V31.755c0-.668-.378-.955-.859-.955a.853.853,0,0,0-.886.955v2.607H7.264V30.084h.844v.43a1.536,1.536,0,0,1,1.139-.481,1.491,1.491,0,0,1,1.056.388,1.575,1.575,0,0,1,.43,1.208v2.735Z" transform="translate(10.569 -28.301)"/>
          <path id="Path_340" data-name="Path 340" d="M14.6,35.358,11.821,31.13v4.227H10.91v-6.01h.835l2.777,4.22v-4.22h.913v6.01Z" transform="translate(15.873 -29.296)"/>
          <path id="Path_341" data-name="Path 341" d="M14.527,32.472a1.052,1.052,0,0,0,1.09,1.2,1.278,1.278,0,0,0,1.038-.439l.547.516a2,2,0,0,1-1.6.668c-1.073,0-1.925-.567-1.925-2.195,0-1.385.717-2.187,1.814-2.187a1.82,1.82,0,0,1,1.817,2.06v.381Zm1.807-1.181a.881.881,0,0,0-.844-.54.892.892,0,0,0-.852.54,1.382,1.382,0,0,0-.11.582h1.925A1.308,1.308,0,0,0,16.334,31.291Z" transform="translate(19.896 -28.301)"/>
          <path id="Path_342" data-name="Path 342" d="M17.535,35.058a1.115,1.115,0,0,1-1.173-1.191V31.513h-.489v-.658h.489v-1.3h.862v1.3h.827v.658h-.827v2.313a.436.436,0,0,0,.474.5h.354v.734Z" transform="translate(23.094 -28.997)"/>
          <path id="Path_343" data-name="Path 343" d="M22.173,34.332h-.736l-1-2.988-.994,2.988h-.744l-1.326-4.279h.911l.827,3.012,1-3.012h.668l.987,3.012.827-3.012h.921Z" transform="translate(25.271 -28.271)"/>
          <path id="Path_344" data-name="Path 344" d="M23.57,33.908a1.87,1.87,0,0,1-2.558,0,2.261,2.261,0,0,1-.506-1.689,2.247,2.247,0,0,1,.506-1.679,1.864,1.864,0,0,1,2.558,0,2.247,2.247,0,0,1,.506,1.679A2.261,2.261,0,0,1,23.57,33.908Zm-.651-2.862a.872.872,0,0,0-.633-.245.853.853,0,0,0-.624.245,1.653,1.653,0,0,0-.295,1.173,1.653,1.653,0,0,0,.295,1.173.859.859,0,0,0,.624.253.878.878,0,0,0,.633-.253,1.654,1.654,0,0,0,.3-1.173A1.654,1.654,0,0,0,22.919,31.046Z" transform="translate(29.835 -28.301)"/>
          <path id="Path_345" data-name="Path 345" d="M25.2,31.088a.794.794,0,0,0-.641-.287.88.88,0,0,0-.852.962v2.6h-.862V30.084h.844v.464a1.418,1.418,0,0,1,1.139-.516,1.324,1.324,0,0,1,1.021.405Z" transform="translate(33.242 -28.301)"/>
          <path id="Path_346" data-name="Path 346" d="M27.464,35.358l-1.2-1.974-.633.717v1.257h-.859v-6.01h.859v3.707l1.664-1.976H28.34l-1.485,1.679,1.672,2.6Z" transform="translate(36.04 -29.296)"/>
          <path id="Path_347" data-name="Path 347" d="M28.348,35.358v-6.01h.911V34.54h2.894v.817Z" transform="translate(41.244 -29.296)"/>
          <path id="Path_348" data-name="Path 348" d="M33.187,34.362v-.388a1.41,1.41,0,0,1-1.139.439,1.519,1.519,0,0,1-1.149-.388,1.318,1.318,0,0,1-.336-.921c0-.717.5-1.232,1.475-1.232H33.17v-.3c0-.54-.27-.8-.938-.8a1,1,0,0,0-.935.415l-.567-.533a1.762,1.762,0,0,1,1.537-.616c1.173,0,1.765.5,1.765,1.47v2.86Zm-.017-1.89h-1c-.506,0-.768.228-.768.616s.245.609.786.609a1.021,1.021,0,0,0,.8-.245.857.857,0,0,0,.187-.633Z" transform="translate(44.467 -28.301)"/>
          <path id="Path_349" data-name="Path 349" d="M35.951,35.029a1.482,1.482,0,0,1-1.046.381,1.314,1.314,0,0,1-1.132-.506v.454h-.844v-6.01h.862v2.16a1.323,1.323,0,0,1,1.122-.481,1.463,1.463,0,0,1,1.038.381,2.554,2.554,0,0,1,.481,1.807A2.573,2.573,0,0,1,35.951,35.029ZM34.684,31.8c-.776,0-.894.658-.894,1.419s.118,1.426.894,1.426.886-.668.886-1.426S35.462,31.8,34.684,31.8Z" transform="translate(47.909 -29.296)"/>
        </g>
      </g>
    </g>
    <rect id="Rectangle_101" data-name="Rectangle 101" width="113" height="17" transform="translate(8 111)" fill="#363636"/>
    <text id="_Stage_1" data-name=" Stage 1" transform="translate(13 111)" fill="#fff" font-size="12" font-family="Novecentosans-Medium, Novecento sans" font-weight="500"><tspan x="31.822" y="12" xml:space="preserve"> Stage 1</tspan></text>
  </g>
</svg>
