<svg xmlns="http://www.w3.org/2000/svg" viewBox="0 0 24.09 24.67"><defs><style>.cls-1{fill:#fff;}</style></defs><title>onl_mark</title><g id="Layer_2" data-name="Layer 2"><g id="Layer_1-2" data-name="Layer 1"><path class="cls-1" d="M20.75,8.73h0a3.34,3.34,0,0,0-3.32,3.07,2.73,2.73,0,0,1-1.35.67,5.31,5.31,0,0,1-1.88.19h0a1.22,1.22,0,0,1-.42-.14l0,0a.52.52,0,0,1-.11-.1.53.53,0,0,1-.08-.15s0,0,0-.05h0a1.82,1.82,0,0,1,0-.57,1.8,1.8,0,0,1,.05-.19,2.6,2.6,0,0,1,.13-.36,8,8,0,0,1,.53-1h0A6.54,6.54,0,0,1,15,9.22a3.74,3.74,0,0,1,.77-.7,2,2,0,0,0,.6.09A2.21,2.21,0,0,0,18.57,6.4a2.22,2.22,0,0,0-2.21-2.21A2.21,2.21,0,0,0,14.6,7.73a2.3,2.3,0,0,1-.14.9,4,4,0,0,1-.24.46l-.07.13c-.1.22-.21.44-.33.65l-.08.15c-.14.23-.28.46-.44.68v0a2.47,2.47,0,0,1-.42.49l-.07.06a2.33,2.33,0,0,1-.5.31l-.05,0a.67.67,0,0,1-.31,0h0c-.78-.11-1.56-1.31-2.06-2.1a3.56,3.56,0,0,1-.7-2.41,4.77,4.77,0,0,0,.58-2.26h0A4.86,4.86,0,1,0,4.86,9.72a5.1,5.1,0,0,0,1.61-.29,4,4,0,0,1,3.1,1.46,4.29,4.29,0,0,1,1,1.28h0a1.21,1.21,0,0,1,0,.86,2.44,2.44,0,0,1-.61.81l0,0a.41.41,0,0,1-.11.07,3.1,3.1,0,0,1-.57.3l-.1,0h0a6,6,0,0,1-.91.28h0a2.34,2.34,0,0,1-.38.09,2.67,2.67,0,0,1-1.48-.13,3.54,3.54,0,0,0-2.44-1,3.58,3.58,0,1,0,3.56,3.6,4.8,4.8,0,0,0,0-.52A2.75,2.75,0,0,1,9.32,15h0c.7-.23,1.43-.23,1.74.57l0,.1A11.21,11.21,0,0,1,11,19.27a8.53,8.53,0,0,1-.41,1.81,1.83,1.83,0,1,0,2.33,1.76,1.82,1.82,0,0,0-.54-1.3,1.54,1.54,0,0,0-.47-.33,8.6,8.6,0,0,1-.22-3c.08-1.8.17-3.05.59-3.34a.45.45,0,0,1,.29-.08l.11,0a1,1,0,0,1,.27.07l.17.08.27.17.16.12a3.58,3.58,0,0,1,.44.43,1.73,1.73,0,0,1,.44.73,1.12,1.12,0,0,0-.09.44,1.13,1.13,0,1,0,2.25,0,1.12,1.12,0,0,0-1.6-1,2.18,2.18,0,0,1-.23-.09,4.89,4.89,0,0,1-1-.83.9.9,0,0,1-.15-.19l0,0a.56.56,0,0,1-.07-.16.25.25,0,0,1,0-.07.5.5,0,0,1,0-.17v-.05a.85.85,0,0,1,.47-.65h0a2.71,2.71,0,0,1,.89-.3,5.8,5.8,0,0,1,2.88.13,3.34,3.34,0,1,0,3-4.72Z"/><path class="cls-1" d="M10.61,12.16h0v0Z"/></g></g></svg>