<?xml version="1.0" encoding="utf-8"?>
<!-- Generator: Adobe Illustrator 24.0.1, SVG Export Plug-In . SVG Version: 6.00 Build 0)  -->
<svg version="1.1" id="Layer_1" xmlns="http://www.w3.org/2000/svg" xmlns:xlink="http://www.w3.org/1999/xlink" x="0px" y="0px"
	 viewBox="0 0 1090 407" style="enable-background:new 0 0 1090 407;" xml:space="preserve">
<style type="text/css">
	.st0{fill:#EDEEEF;}
	.st1{fill:none;stroke:url(#SVGID_1_);stroke-width:2;stroke-miterlimit:10;}
	.st2{fill:#222222;}
	.st3{enable-background:new    ;}
	.st4{fill:#004D99;}
	.st5{fill:none;stroke:#004D99;stroke-miterlimit:10;}
	.st6{fill:none;stroke:#E0E0E0;stroke-miterlimit:10;}
	.st7{fill:#A90519;}
	.st8{fill:none;stroke:#A90519;stroke-miterlimit:10;}
	.st9{fill:#7D0D1B;}
	.st10{fill:none;stroke:#7D0D1B;stroke-miterlimit:10;}
	.st11{fill:#1379CE;}
	.st12{fill:none;stroke:#1379CE;stroke-miterlimit:10;}
	.st13{fill:none;stroke:#ADADAD;stroke-miterlimit:10;}
	.st14{fill:#ADADAD;}
	.st15{fill:none;stroke:#222222;stroke-miterlimit:10;}
</style>
<title>strategy</title>
<g id="Layer_2_1_">
	<g id="Layer_1-2">
		<g id="Layer_2-2">
			<g id="レイヤー_1">
				<polygon class="st0" points="726.7,0 363.4,0 0,0 0,407 363.4,407 726.7,407 1090,407 1090,0 				"/>
				
					<linearGradient id="SVGID_1_" gradientUnits="userSpaceOnUse" x1="63.3947" y1="-945.5601" x2="1026.7053" y2="-945.5601" gradientTransform="matrix(1 0 0 1 0 1104.5601)">
					<stop  offset="0" style="stop-color:#9DC1D1"/>
					<stop  offset="0" style="stop-color:#1379CE"/>
					<stop  offset="1" style="stop-color:#A90519"/>
				</linearGradient>
				<line class="st1" x1="63.6" y1="260" x2="1026.5" y2="58"/>
				<path class="st2" d="M252.2,291c-5.4,0-9.9,4.2-10.3,9.6c-1.2,1-2.6,1.7-4.1,2c-2,0.6-4.1,0.7-6.2,0.5h-0.2l-0.3-0.1l-0.1-0.1
					c-0.1,0-0.2-0.1-0.3-0.2l0,0c-0.1-0.1-0.2-0.1-0.2-0.2l-0.1-0.1l-0.2-0.2v-0.1c-0.1-0.1-0.1-0.2-0.1-0.4
					c-0.1-0.2-0.1-0.5-0.1-0.7v-0.1c0-0.2,0.1-0.5,0.1-0.8v-0.2c0.1-0.3,0.1-0.6,0.2-0.9c0-0.1,0-0.1,0.1-0.1h0
					c0.1-0.3,0.2-0.5,0.3-0.8l0.1-0.3c0-0.1,0.1-0.2,0.1-0.3l0.2-0.4c0.1-0.1,0.1-0.2,0.2-0.3l0.1-0.2c0.2-0.3,0.4-0.7,0.6-1v-0.1
					l0.3-0.5l0.1-0.2c0.1-0.1,0.2-0.3,0.3-0.4l0.2-0.2l0.3-0.4l0.2-0.3l0.3-0.3l0.5-0.6c0.7-0.8,1.5-1.5,2.3-2.1
					c0.6,0.2,1.3,0.3,1.9,0.3c3.8,0,6.8-3,6.8-6.8c0-3.8-3-6.8-6.8-6.8c-3.8,0-6.8,3-6.8,6.8l0,0c0,1.6,0.5,3.1,1.5,4.3
					c-0.2,1.4-0.6,2.8-1.3,4c-0.2,0.4-0.4,0.7-0.6,1.1l-0.1,0.1l-0.6,1.2l0,0c-0.5,0.9-1,1.7-1.6,2.5c-0.3,0.4-0.6,0.8-1,1.2
					l-0.1,0.1l-0.3,0.3l-0.1,0.1l-0.1,0.3l-0.2,0.2c-0.1,0.1-0.1,0.1-0.2,0.1l-0.3,0.2l-0.2,0.1c-0.2,0.1-0.3,0.1-0.5,0.2
					c-0.2,0.1-0.4,0.1-0.6,0.1h-0.2c-0.2,0-0.3,0-0.5-0.1h-0.1c-0.5-0.1-0.9-0.3-1.3-0.6l0,0c-1.8-1.3-3.5-3.9-4.7-5.8
					c-1.4-2.1-2.2-4.6-2.3-7.1c4.2-7.2,1.7-16.4-5.5-20.6c-7.2-4.2-16.4-1.7-20.6,5.5c-4.2,7.2-1.7,16.4,5.5,20.6c0,0,0,0,0,0
					c3.9,2.3,8.7,2.7,13,1c3.5,0.4,6.7,2,9.1,4.6c0.9,1,2.6,2.2,3.2,3.9c0.1,0.4,0.2,0.8,0.3,1.2v0.7c0,0.2-0.1,0.5-0.2,0.7
					c-0.1,0.2-0.2,0.5-0.3,0.7l-0.1,0.2c-0.1,0.1-0.2,0.3-0.3,0.4l-0.1,0.2c-0.1,0.2-0.3,0.3-0.5,0.5l-0.2,0.2l-0.3,0.3l-0.2,0.2
					l-0.4,0.3l-0.3,0.2c-0.1,0.1-0.2,0.2-0.4,0.2l-0.3,0.1c-0.1,0.1-0.3,0.1-0.4,0.2l-0.2,0.1l-0.5,0.2c-0.9,0.3-1.9,0.6-2.8,0.8
					c-1.8,0.5-3.7,0.6-5.5,0.1c-4.3-4.4-11.3-4.4-15.7-0.1c-4.4,4.3-4.4,11.3-0.1,15.7c4.3,4.4,11.3,4.4,15.7,0.1
					c2.1-2.1,3.3-4.9,3.3-7.9c0-0.5-0.1-1.1-0.1-1.6c0.8-2.4,3.1-4,5.8-4.9c2.2-0.8,4.4-0.7,5.4,1.8s0.2,7.6-0.2,11.4
					c-0.2,1.9-0.6,3.8-1.2,5.6c-3,0.8-4.8,4-4,7c0.8,3,4,4.8,7,4c3-0.8,4.8-4,4-7c-0.4-1.6-1.5-2.9-3-3.6c-0.8-2.4-0.8-5.8-0.6-9.1
					c0.2-5.2,0.5-9,1.6-10.1l0,0c0-0.1,0.1-0.2,0.2-0.2c0.1-0.1,0.2-0.2,0.4-0.2h1l0.3,0.1l0.3,0.1l0.3,0.1l0.3,0.2l0.6,0.3l0.4,0.3
					l0.2,0.2c0.5,0.4,1,0.9,1.4,1.4c0.6,0.6,1.1,1.4,1.4,2.2c-0.2,0.4-0.3,0.9-0.3,1.4c0,1.9,1.6,3.5,3.5,3.5s3.5-1.6,3.5-3.5
					s-1.6-3.5-3.5-3.5l0,0c-0.6,0-1.1,0.1-1.6,0.4h-0.2l-0.4-0.2l-0.4-0.2c-0.1-0.1-0.2-0.1-0.3-0.2l-0.4-0.3l-0.2-0.2l-0.4-0.4
					l-0.2-0.1l-0.5-0.4l-0.1-0.1l-0.5-0.5l-0.4-0.4l-0.2-0.3l-0.1-0.2l-0.1-0.1l-0.1-0.2v-0.1c-0.5-0.8-0.4-1.9,0.2-2.6h0.1l0.2-0.2
					l0.1-0.1c0.1-0.1,0.2-0.1,0.2-0.2l0.1-0.1l0.6-0.3c0.8-0.4,1.6-0.6,2.4-0.8c3-0.6,6-0.5,8.9,0.4c2.5,5.1,8.6,7.3,13.8,4.8
					c4.9-2.4,7.1-8.2,5-13.2C259.8,293.3,256.2,291.1,252.2,291L252.2,291z"/>
				<path class="st2" d="M178.9,354.3c-1,1-2.7,1-3.7,0c-0.7-0.7-0.7-1.5-0.7-2.8s0-2.1,0.7-2.8c1-1,2.7-1,3.7,0
					c0.7,0.7,0.7,1.5,0.7,2.8S179.6,353.6,178.9,354.3z M178.1,349.3c-0.3-0.3-0.6-0.4-1-0.4c-0.4,0-0.7,0.2-1,0.4
					c-0.4,0.4-0.4,0.8-0.4,2.2s0.1,1.8,0.4,2.2c0.3,0.3,0.6,0.4,1,0.4c0.4,0,0.7-0.2,1-0.4c0.4-0.4,0.4-0.8,0.4-2.2
					S178.5,349.7,178.1,349.3z"/>
				<path class="st2" d="M185.7,354.6c-0.3,0.3-0.8,0.5-1.2,0.4c-0.5,0-1-0.2-1.3-0.6v2.5h-1v-7h1v0.5c0.3-0.4,0.8-0.6,1.3-0.6
					c0.4,0,0.9,0.1,1.2,0.4c0.4,0.6,0.6,1.4,0.6,2.1C186.4,353.1,186.2,354,185.7,354.6z M184.3,350.9c-0.9,0-1,0.8-1,1.6
					s0.1,1.7,1,1.7s1-0.8,1-1.7S185.2,350.9,184.3,350.9z"/>
				<path class="st2" d="M189.6,352.8c-0.1,0.7,0.3,1.3,1,1.4h0.2c0.5,0,0.9-0.2,1.2-0.5l0.6,0.6c-0.5,0.5-1.2,0.8-1.9,0.8
					c-1.2,0-2.2-0.7-2.2-2.6c0-1.6,0.8-2.5,2.1-2.5c1.1,0,2.1,0.9,2.1,2c0,0,0,0.1,0,0.1v0.7H189.6z M191.7,351.4
					c-0.2-0.6-0.8-0.8-1.4-0.6c0,0,0,0,0,0c-0.3,0.1-0.5,0.3-0.6,0.6c-0.1,0.2-0.1,0.5-0.1,0.7h2.2
					C191.8,351.9,191.8,351.6,191.7,351.4L191.7,351.4z"/>
				<path class="st2" d="M198.4,355v-3c0-0.8-0.4-1.1-1-1.1c-0.5,0-1,0.4-1,0.9c0,0,0,0.1,0,0.1v3.1h-1v-5h1v0.5
					c0.3-0.4,0.8-0.6,1.3-0.6c0.5,0,0.9,0.1,1.2,0.5c0.4,0.4,0.5,0.9,0.5,1.4v3.2H198.4z"/>
				<path class="st2" d="M210,355l-3.2-4.9v4.9h-1.1v-7h1l3.2,4.9V348h1.1v7H210z"/>
				<path class="st2" d="M214.7,352.8c-0.1,0.7,0.3,1.3,1,1.4h0.2c0.5,0,0.9-0.2,1.2-0.5l0.6,0.6c-0.5,0.5-1.2,0.8-1.9,0.8
					c-1.2,0-2.2-0.7-2.2-2.6c0-1.6,0.8-2.5,2.1-2.5c1.1,0,2.1,0.9,2.1,2c0,0,0,0.1,0,0.1v0.7H214.7z M216.8,351.4
					c-0.2-0.4-0.6-0.6-1-0.6c-0.4,0-0.8,0.2-1,0.6c-0.1,0.2-0.1,0.5-0.1,0.7h2.2C216.9,351.9,216.9,351.6,216.8,351.4z"/>
				<path class="st2" d="M221.9,355c-0.7,0-1.3-0.5-1.4-1.2v-3h-0.6V350h0.6v-1.5h1v1.5h1v0.8h-1v2.7c0,0.4,0.2,0.6,0.5,0.6h0.4v0.9
					H221.9z"/>
				<path class="st2" d="M229.8,355H229l-1.2-3.5l-1.2,3.5h-0.9l-1.5-5h1.1l1,3.5l1.1-3.5h0.8l1.1,3.5l1-3.5h1.1L229.8,355z"/>
				<path class="st2" d="M236.8,354.5c-0.8,0.8-2.2,0.8-3,0c-0.8-1.2-0.8-2.7,0-3.9c0.8-0.8,2.2-0.8,3,0
					C237.6,351.8,237.6,353.3,236.8,354.5z M236,351.2c-0.2-0.2-0.4-0.3-0.7-0.3c-0.3,0-0.5,0.1-0.7,0.3c-0.3,0.4-0.4,0.9-0.4,1.4
					c-0.1,0.5,0.1,1,0.4,1.4c0.2,0.2,0.4,0.3,0.7,0.3c0.3,0,0.5-0.1,0.7-0.3c0.3-0.4,0.4-0.9,0.4-1.4
					C236.4,352.1,236.3,351.6,236,351.2z"/>
				<path class="st2" d="M242.7,351.2c-0.2-0.2-0.5-0.3-0.8-0.3c-0.5,0-1,0.4-1,0.9c0,0,0,0.1,0,0.1v3.1h-1v-5h1v0.5
					c0.3-0.4,0.8-0.6,1.3-0.6c0.5,0,0.9,0.2,1.2,0.5L242.7,351.2z"/>
				<path class="st2" d="M248.6,355l-1.4-2.3l-0.7,0.8v1.5h-1v-7h1v4.3l1.9-2.3h1.2l-1.7,2l2,3H248.6z"/>
				<path class="st2" d="M255.7,355v-7h1.1v6h3.4v1H255.7z"/>
				<path class="st2" d="M265,355v-0.5c-0.7,0.7-1.9,0.7-2.6,0c-0.3-0.3-0.4-0.7-0.4-1.1c0-0.8,0.6-1.4,1.7-1.4h1.3v-0.4
					c0-0.6-0.3-0.9-1.1-0.9c-0.4,0-0.8,0.2-1.1,0.5l-0.7-0.6c0.4-0.5,1.1-0.8,1.8-0.7c1.4,0,2.1,0.6,2.1,1.7v3.3h-1L265,355z
					 M265,352.8h-1.2c-0.6,0-0.9,0.3-0.9,0.7s0.3,0.7,0.9,0.7c0.3,0,0.6-0.1,0.9-0.3c0.2-0.2,0.2-0.4,0.2-0.7L265,352.8L265,352.8z"
					/>
				<path class="st2" d="M272.3,354.6c-0.4,0.3-0.8,0.4-1.3,0.4c-0.5,0-1-0.2-1.3-0.6v0.6h-1v-7h1v2.5c0.3-0.4,0.8-0.6,1.3-0.6
					c0.4,0,0.9,0.1,1.2,0.4c0.4,0.6,0.6,1.4,0.6,2.1C272.9,353.2,272.7,354,272.3,354.6z M270.8,350.9c-0.9,0-1,0.8-1,1.6
					s0.1,1.7,1,1.7s1-0.8,1-1.7S271.7,350.9,270.8,350.9z"/>
				<g class="st3">
					<path d="M31.5,233.7c0.9,0.2,2.4,0.9,2.4,2.9c0,1.9-1.2,3.1-3.6,3.1h-3.8v-11.2h3.5c2,0,3.2,1.1,3.2,2.8
						C33.2,232.7,32.2,233.4,31.5,233.7L31.5,233.7z M29.9,233.3c1.2,0,2-0.6,2-1.9c0-1.2-0.8-1.8-2.2-1.8h-2v3.7H29.9z M30.2,238.6
						c1.4,0,2.4-0.7,2.4-2.1c0-1.4-1.1-2.2-2.4-2.2h-2.4v4.3H30.2z"/>
				</g>
				<g class="st3">
					<path d="M39.1,230.5c2.4,0,4.2,1.7,4.2,4.6s-1.7,4.7-4.2,4.7c-2.4,0-4.2-1.7-4.2-4.7S36.7,230.5,39.1,230.5z M39.1,238.7
						c1.7,0,2.9-1.3,2.9-3.5c0-2.3-1.2-3.5-2.9-3.5c-1.7,0-2.9,1.3-2.9,3.5C36.2,237.4,37.4,238.7,39.1,238.7z"/>
				</g>
				<g class="st3">
					<path d="M48.6,230.5c2.4,0,4.2,1.7,4.2,4.6s-1.7,4.7-4.2,4.7c-2.4,0-4.2-1.7-4.2-4.7S46.2,230.5,48.6,230.5z M48.6,238.7
						c1.7,0,2.9-1.3,2.9-3.5c0-2.3-1.2-3.5-2.9-3.5c-1.7,0-2.9,1.3-2.9,3.5C45.7,237.4,46.9,238.7,48.6,238.7z"/>
				</g>
				<g class="st3">
					<path d="M57.3,231.8v7.8h-1.2v-7.8h-2.8v-1.1h6.8v1.1H57.3z"/>
				</g>
				<g class="st3">
					<path d="M61.9,237.2c0.1,1,0.9,1.6,2.1,1.6c1.1,0,1.8-0.5,1.8-1.5c0-1.3-1.2-1.5-2.5-1.9c-1-0.3-2.4-0.8-2.4-2.5
						c0-1.6,1.1-2.4,2.9-2.4c1.7,0,2.8,0.7,3.1,2.2L66,233c-0.2-0.9-0.8-1.5-2-1.5c-1.1,0-1.8,0.5-1.8,1.4c0,1.1,0.9,1.3,2.2,1.7
						c1.1,0.3,2.7,0.8,2.7,2.7c0,1.7-1.2,2.5-3,2.5c-1.3,0-2.9-0.4-3.2-2.4L61.9,237.2z"/>
				</g>
				<g class="st3">
					<path d="M71.9,231.8v7.8h-1.2v-7.8h-2.8v-1.1h6.8v1.1H71.9z"/>
				</g>
				<g class="st3">
					<path d="M79.2,236.1c-0.3,0-0.7,0-0.9,0h-0.9v3.6h-1.2v-9h2.7c2.1,0,3.2,1,3.2,2.7c0,1.4-0.8,2.2-1.8,2.4l2.1,3.8h-1.3
						L79.2,236.1z M79,235.1c1.3,0,2-0.5,2-1.6c0-1.2-0.8-1.7-2-1.7h-1.5v3.3H79z"/>
				</g>
				<g class="st3">
					<path d="M85.4,237.3l-0.8,2.3h-1.2l3.2-9H88l3.2,9h-1.2l-0.8-2.3H85.4z M88.1,234.2c-0.5-1.6-0.8-2.5-0.8-2.5h0
						c0,0-0.3,1-0.9,2.6l-0.7,2h3.1L88.1,234.2z"/>
					<path d="M95.2,230.7c2.1,0,3.2,1.1,3.2,2.8c0,1.7-1.2,2.8-3.2,2.8h-1.4v3.4h-1.2v-9H95.2z M95.3,235.2c1.4,0,2-0.6,2-1.7
						s-0.7-1.7-2-1.7h-1.4v3.5H95.3z"/>
				</g>
				<g class="st3">
					<path d="M185.8,199.1c0.1,1.5,1.2,2.2,2.8,2.2c1.5,0,2.3-0.6,2.3-1.9c0-1.7-1.6-1.9-2.9-2.4c-1.4-0.5-3.2-1.1-3.2-3.2
						c0-1.9,1.3-2.9,3.5-2.9c1.9,0,3.3,0.8,3.7,2.7l-1.2,0.3c-0.3-1.2-1.1-1.9-2.5-1.9c-1.4,0-2.2,0.6-2.2,1.7
						c0,1.4,1.2,1.8,2.7,2.3c1.6,0.5,3.3,1,3.3,3.4c0,2-1.3,3.1-3.6,3.1c-1.8,0-3.7-0.7-4-3L185.8,199.1z"/>
					<path d="M193.8,193.3h5.7v1.1H195v2.6h3.5v1.1H195v2.9h4.5v1.1h-5.7V193.3z"/>
					<path d="M201.4,193.3h5.7v1.1h-4.5v2.6h3.5v1.1h-3.5v2.9h4.5v1.1h-5.7V193.3z"/>
					<path d="M211.7,193.3c2.7,0,4.4,1.7,4.4,4.5c0,2.8-1.7,4.4-4.4,4.4H209v-9H211.7z M211.8,201.1c2,0,3.2-1.1,3.2-3.3
						c0-2.3-1.2-3.4-3.2-3.4h-1.6v6.7H211.8z"/>
					<path d="M222.1,199.1c0.1,1.5,1.2,2.2,2.8,2.2c1.5,0,2.3-0.6,2.3-1.9c0-1.7-1.6-1.9-2.9-2.4c-1.4-0.5-3.2-1.1-3.2-3.2
						c0-1.9,1.3-2.9,3.5-2.9c1.9,0,3.3,0.8,3.7,2.7l-1.2,0.3c-0.3-1.2-1.1-1.9-2.5-1.9c-1.4,0-2.2,0.6-2.2,1.7
						c0,1.4,1.2,1.8,2.7,2.3c1.6,0.5,3.3,1,3.3,3.4c0,2-1.3,3.1-3.6,3.1c-1.8,0-3.7-0.7-4-3L222.1,199.1z"/>
				</g>
				<g class="st3">
					<path d="M233.5,194.5v7.8h-1.2v-7.8h-2.8v-1.1h6.8v1.1H233.5z"/>
				</g>
				<g class="st3">
					<path d="M237.8,199.9l-0.8,2.3h-1.2l3.2-9h1.5l3.2,9h-1.2l-0.8-2.3H237.8z M240.5,196.9c-0.5-1.6-0.8-2.5-0.8-2.5h0
						c0,0-0.3,1-0.9,2.6l-0.7,2h3.1L240.5,196.9z"/>
				</g>
				<g class="st3">
					<path d="M251.3,202.3c0-0.9,0-1.2,0-1.2h0c-0.4,0.5-1.3,1.4-2.9,1.4c-2.4,0-4.1-1.8-4.1-4.7c0-2.9,1.7-4.6,4.2-4.6
						c1.6,0,3.1,0.7,3.8,2.6l-1.1,0.3c-0.3-0.8-1.1-1.8-2.6-1.8c-1.8,0-3,1.3-3,3.5c0,2.3,1.2,3.6,3.1,3.6c1.4,0,2.4-0.8,2.7-1.4
						v-1.2h-2.4v-1.1h3.5v4.6H251.3z"/>
					<path d="M254.3,193.3h5.7v1.1h-4.5v2.6h3.5v1.1h-3.5v2.9h4.5v1.1h-5.7V193.3z"/>
				</g>
				<circle class="st4" cx="223.8" cy="226" r="6.9"/>
				<circle class="st5" cx="223.8" cy="226" r="11"/>
				<line class="st6" x1="63" y1="345.9" x2="63" y2="6"/>
				<line class="st6" x1="383.3" y1="348.5" x2="383.3" y2="6"/>
				<line class="st6" x1="705" y1="270.8" x2="705" y2="6"/>
				<line class="st6" x1="1027.4" y1="348.5" x2="1027.4" y2="6"/>
				<circle class="st4" cx="383.3" cy="191.8" r="6.9"/>
				<circle class="st5" cx="383.3" cy="191.8" r="11"/>
				<g class="st3">
					<path d="M340,157.8h6.8v1.2h-5.5v3.6h4.3v1.2h-4.3v4.1h5.6v1.2H340V157.8z"/>
					<path d="M349.8,166.6L349,169h-1.2l3.2-9h1.5l3.2,9h-1.2l-0.8-2.3H349.8z M352.6,163.5c-0.5-1.6-0.8-2.5-0.8-2.5h0
						c0,0-0.3,1-0.9,2.6l-0.7,2h3.1L352.6,163.5z"/>
					<path d="M360,165.4c-0.3,0-0.7,0-0.9,0h-0.9v3.6h-1.2v-9h2.7c2.1,0,3.2,1,3.2,2.7c0,1.4-0.8,2.2-1.8,2.4l2.1,3.8h-1.3
						L360,165.4z M359.8,164.4c1.3,0,2-0.5,2-1.6c0-1.2-0.8-1.7-2-1.7h-1.5v3.3H359.8z"/>
				</g>
				<g class="st3">
					<path d="M364.9,160h1.2v7.8h4.2v1.1h-5.4V160z"/>
				</g>
				<g class="st3">
					<path d="M372.8,169v-3.6l-3.1-5.3h1.4l1.2,2.1c0.6,1.1,1.1,2,1.1,2h0c0,0,0.5-0.9,1.1-2l1.2-2.1h1.2l-3.1,5.3v3.6H372.8z"/>
					<path d="M382.7,165.8c0.1,1.5,1.2,2.2,2.8,2.2c1.5,0,2.3-0.6,2.3-1.9c0-1.7-1.6-1.9-2.9-2.4c-1.4-0.5-3.2-1.1-3.2-3.2
						c0-1.9,1.3-2.9,3.5-2.9c1.9,0,3.3,0.8,3.7,2.7l-1.2,0.3c-0.3-1.2-1.1-1.9-2.5-1.9c-1.4,0-2.2,0.6-2.2,1.7
						c0,1.4,1.2,1.8,2.7,2.3c1.6,0.5,3.3,1,3.3,3.4c0,2-1.3,3.1-3.6,3.1c-1.8,0-3.7-0.7-4-3L382.7,165.8z"/>
				</g>
				<g class="st3">
					<path d="M394.1,161.1v7.8h-1.2v-7.8h-2.8V160h6.8v1.1H394.1z"/>
				</g>
				<g class="st3">
					<path d="M398.4,166.6l-0.8,2.3h-1.2l3.2-9h1.5l3.2,9H403l-0.8-2.3H398.4z M401.2,163.5c-0.5-1.6-0.8-2.5-0.8-2.5h0
						c0,0-0.3,1-0.9,2.6l-0.7,2h3.1L401.2,163.5z"/>
				</g>
				<g class="st3">
					<path d="M411.9,169c0-0.9,0-1.2,0-1.2h0c-0.4,0.5-1.3,1.4-2.9,1.4c-2.4,0-4.1-1.8-4.1-4.7c0-2.9,1.7-4.6,4.2-4.6
						c1.6,0,3.1,0.7,3.8,2.6l-1.1,0.3c-0.3-0.8-1.1-1.8-2.6-1.8c-1.8,0-3,1.3-3,3.5c0,2.3,1.2,3.6,3.1,3.6c1.4,0,2.4-0.8,2.7-1.4
						v-1.2h-2.4v-1.1h3.5v4.6H411.9z"/>
					<path d="M415,160h5.7v1.1h-4.5v2.6h3.5v1.1h-3.5v2.9h4.5v1.1H415V160z"/>
				</g>
				<circle class="st7" cx="705.4" cy="125.7" r="6.8"/>
				<circle class="st8" cx="705.4" cy="125.7" r="11"/>
				<g class="st3">
					<path d="M676.9,98.3c0-2.2,0-4.3,0-4.3h0c0,0-0.4,0.9-1.3,2.7l-1.8,3.7H673l-1.8-3.6c-0.9-1.9-1.3-2.8-1.3-2.8h0
						c0,0,0,2.2,0,4.3v4.9h-1.2V92h1.4l3.3,6.7h0l3.3-6.7h1.4v11.2h-1.2V98.3z"/>
					<path d="M680.4,94.2h1.2v9h-1.2V94.2z"/>
					<path d="M686.6,94.2c2.7,0,4.4,1.7,4.4,4.5c0,2.8-1.7,4.4-4.4,4.4h-2.8v-9H686.6z M686.7,102.1c2,0,3.2-1.1,3.2-3.3
						c0-2.3-1.2-3.4-3.2-3.4h-1.6v6.7H686.7z"/>
					<path d="M700.6,100c0.1,1.5,1.2,2.2,2.8,2.2c1.5,0,2.3-0.6,2.3-1.9c0-1.7-1.6-1.9-2.9-2.4c-1.4-0.5-3.2-1.1-3.2-3.2
						c0-1.9,1.3-2.9,3.5-2.9c1.9,0,3.3,0.8,3.7,2.7l-1.2,0.3c-0.3-1.2-1.1-1.9-2.5-1.9c-1.4,0-2.2,0.6-2.2,1.7
						c0,1.4,1.2,1.8,2.7,2.3c1.6,0.5,3.3,1,3.3,3.4c0,2-1.3,3.1-3.6,3.1c-1.8,0-3.7-0.7-4-3L700.6,100z"/>
				</g>
				<g class="st3">
					<path d="M712,95.4v7.8h-1.2v-7.8H708v-1.1h6.8v1.1H712z"/>
				</g>
				<g class="st3">
					<path d="M716.3,100.9l-0.8,2.3h-1.2l3.2-9h1.5l3.2,9h-1.2l-0.8-2.3H716.3z M719,97.8c-0.5-1.6-0.8-2.5-0.8-2.5h0
						c0,0-0.3,1-0.9,2.6l-0.7,2h3.1L719,97.8z"/>
				</g>
				<g class="st3">
					<path d="M729.8,103.2c0-0.9,0-1.2,0-1.2h0c-0.4,0.5-1.3,1.4-2.9,1.4c-2.4,0-4.1-1.8-4.1-4.7c0-2.9,1.7-4.6,4.2-4.6
						c1.6,0,3.1,0.7,3.8,2.6l-1.1,0.3c-0.3-0.8-1.1-1.8-2.6-1.8c-1.8,0-3,1.3-3,3.5c0,2.3,1.2,3.6,3.1,3.6c1.4,0,2.4-0.8,2.7-1.4
						v-1.2h-2.4v-1.1h3.5v4.6H729.8z"/>
					<path d="M732.8,94.2h5.7v1.1H734V98h3.5v1.1H734v2.9h4.5v1.1h-5.7V94.2z"/>
				</g>
				
					<ellipse transform="matrix(0.2076 -0.9782 0.9782 0.2076 756.6995 1051.5332)" class="st9" cx="1027.4" cy="58.7" rx="6.8" ry="6.8"/>
				<circle class="st10" cx="1027.4" cy="58.7" r="11"/>
				<g class="st3">
					<path d="M988.5,26h1.2v10h5.2v1.2h-6.5V26z"/>
				</g>
				<g class="st3">
					<path d="M998,34.9l-0.8,2.3h-1.2l3.2-9h1.5l3.2,9h-1.2l-0.8-2.3H998z M1000.7,31.8c-0.5-1.6-0.8-2.5-0.8-2.5h0
						c0,0-0.3,1-0.9,2.6l-0.7,2h3.1L1000.7,31.8z"/>
				</g>
				<g class="st3">
					<path d="M1007.3,29.4v7.8h-1.2v-7.8h-2.8v-1.1h6.8v1.1H1007.3z"/>
					<path d="M1011.7,28.2h5.7v1.1h-4.5V32h3.5v1.1h-3.5v2.9h4.5v1.1h-5.7V28.2z"/>
					<path d="M1023.5,34c0.1,1.5,1.2,2.2,2.8,2.2c1.5,0,2.3-0.6,2.3-1.9c0-1.7-1.6-1.9-2.9-2.4c-1.4-0.5-3.2-1.1-3.2-3.2
						c0-1.9,1.3-2.9,3.5-2.9c1.9,0,3.3,0.8,3.7,2.7l-1.2,0.3c-0.3-1.2-1.1-1.9-2.5-1.9c-1.4,0-2.2,0.6-2.2,1.7
						c0,1.4,1.2,1.8,2.7,2.3c1.6,0.5,3.3,1,3.3,3.4c0,2-1.3,3.1-3.6,3.1c-1.8,0-3.7-0.7-4-3L1023.5,34z"/>
				</g>
				<g class="st3">
					<path d="M1034.9,29.4v7.8h-1.2v-7.8h-2.8v-1.1h6.8v1.1H1034.9z"/>
				</g>
				<g class="st3">
					<path d="M1039.2,34.9l-0.8,2.3h-1.2l3.2-9h1.5l3.2,9h-1.2l-0.8-2.3H1039.2z M1042,31.8c-0.5-1.6-0.8-2.5-0.8-2.5h0
						c0,0-0.3,1-0.9,2.6l-0.7,2h3.1L1042,31.8z"/>
				</g>
				<g class="st3">
					<path d="M1052.7,37.2c0-0.9,0-1.2,0-1.2h0c-0.4,0.5-1.3,1.4-2.9,1.4c-2.4,0-4.1-1.8-4.1-4.7c0-2.9,1.7-4.6,4.2-4.6
						c1.6,0,3.1,0.7,3.8,2.6l-1.1,0.3c-0.3-0.8-1.1-1.8-2.6-1.8c-1.8,0-3,1.3-3,3.5c0,2.3,1.2,3.6,3.1,3.6c1.4,0,2.4-0.8,2.7-1.4
						v-1.2h-2.4v-1.1h3.5v4.6H1052.7z"/>
					<path d="M1055.8,28.2h5.7v1.1h-4.5V32h3.5v1.1h-3.5v2.9h4.5v1.1h-5.7V28.2z"/>
				</g>
				<circle class="st11" cx="63.3" cy="259.8" r="6.9"/>
				<circle class="st12" cx="63.3" cy="259.8" r="11"/>
				<line class="st13" x1="267" y1="375.3" x2="369" y2="375.3"/>
				<circle class="st14" cx="369" cy="375.3" r="2"/>
				<line class="st13" x1="183" y1="375.3" x2="83" y2="375.3"/>
				<circle class="st14" cx="83" cy="375.3" r="2"/>
				<path class="st15" d="M197.5,365h56c1.4,0,2.5,1.1,2.5,2.5c0,0,0,0,0,0v15c0,1.4-1.1,2.5-2.5,2.5c0,0,0,0,0,0h-56
					c-1.4,0-2.5-1.1-2.5-2.5c0,0,0,0,0,0v-15C195.1,366.1,196.1,365.1,197.5,365z"/>
				<g class="st3">
					<path class="st2" d="M206.1,377.2c0.1,0.9,0.8,1.4,1.9,1.4c1,0,1.6-0.4,1.6-1.3c0-1.1-1-1.3-2.2-1.6c-0.9-0.3-2.1-0.7-2.1-2.2
						c0-1.4,1-2.1,2.5-2.1c1.5,0,2.5,0.6,2.7,1.9l-0.9,0.3c-0.2-0.8-0.7-1.3-1.7-1.3c-1,0-1.6,0.4-1.6,1.2c0,0.9,0.8,1.2,1.9,1.5
						c1,0.3,2.3,0.7,2.3,2.4c0,1.5-1.1,2.2-2.6,2.2c-1.2,0-2.6-0.4-2.8-2.1L206.1,377.2z"/>
				</g>
				<g class="st3">
					<path class="st2" d="M214.8,372.5v6.8h-1.1v-6.8h-2.5v-1h6v1H214.8z"/>
				</g>
				<g class="st3">
					<path class="st2" d="M218.5,377.3l-0.7,2h-1.1l2.8-7.8h1.3l2.8,7.8h-1.1l-0.7-2H218.5z M220.9,374.6c-0.5-1.4-0.7-2.2-0.7-2.2
						h0c0,0-0.3,0.9-0.8,2.3l-0.6,1.7h2.7L220.9,374.6z"/>
				</g>
				<g class="st3">
					<path class="st2" d="M230.3,379.3c0-0.8,0-1,0-1h0c-0.3,0.4-1.2,1.2-2.6,1.2c-2.1,0-3.6-1.6-3.6-4.1c0-2.5,1.5-4,3.6-4
						c1.4,0,2.7,0.6,3.3,2.3l-1,0.3c-0.3-0.7-1-1.6-2.3-1.6c-1.6,0-2.6,1.1-2.6,3.1c0,2,1.1,3.2,2.7,3.2c1.2,0,2.1-0.7,2.4-1.2v-1.1
						h-2.1v-0.9h3v4H230.3z"/>
					<path class="st2" d="M233,371.5h5v1H234v2.3h3v1h-3v2.6h4v1h-5V371.5z"/>
					<path class="st2" d="M244.2,374.1c0-0.7,0.1-1.4,0-1.4h0c0,0-0.4,0.4-0.5,0.6l-0.8,0.8l-0.6-0.7l1.9-1.8h1v7.8h-1.1V374.1z"/>
				</g>
				<line class="st13" x1="748" y1="375.3" x2="1008.7" y2="375.3"/>
				<circle class="st14" cx="1008.7" cy="375.3" r="2"/>
				<line class="st13" x1="658.8" y1="375.3" x2="393.5" y2="375.3"/>
				<circle class="st14" cx="391.5" cy="375.3" r="2"/>
				<path class="st15" d="M676.5,365h56c1.4,0,2.5,1.1,2.5,2.5c0,0,0,0,0,0v15c0,1.4-1.1,2.5-2.5,2.5c0,0,0,0,0,0h-56
					c-1.4,0-2.5-1.1-2.5-2.5c0,0,0,0,0,0v-15C674.1,366.1,675.1,365.1,676.5,365z"/>
				<g class="st3">
					<path class="st2" d="M684.1,377.2c0.1,0.9,0.8,1.4,1.9,1.4c1,0,1.6-0.4,1.6-1.3c0-1.1-1-1.3-2.2-1.6c-0.9-0.3-2.1-0.7-2.1-2.2
						c0-1.4,1-2.1,2.5-2.1c1.5,0,2.5,0.6,2.7,1.9l-0.9,0.3c-0.2-0.8-0.7-1.3-1.7-1.3c-1,0-1.6,0.4-1.6,1.2c0,0.9,0.8,1.2,1.9,1.5
						c1,0.3,2.3,0.7,2.3,2.4c0,1.5-1.1,2.2-2.6,2.2c-1.2,0-2.6-0.4-2.8-2.1L684.1,377.2z"/>
				</g>
				<g class="st3">
					<path class="st2" d="M692.8,372.5v6.8h-1.1v-6.8h-2.5v-1h6v1H692.8z"/>
				</g>
				<g class="st3">
					<path class="st2" d="M696.6,377.3l-0.7,2h-1.1l2.8-7.8h1.3l2.8,7.8h-1.1l-0.7-2H696.6z M699,374.6c-0.5-1.4-0.7-2.2-0.7-2.2h0
						c0,0-0.3,0.9-0.8,2.3l-0.6,1.7h2.7L699,374.6z"/>
				</g>
				<g class="st3">
					<path class="st2" d="M708.4,379.3c0-0.8,0-1,0-1h0c-0.3,0.4-1.2,1.2-2.6,1.2c-2.1,0-3.6-1.6-3.6-4.1c0-2.5,1.5-4,3.6-4
						c1.4,0,2.7,0.6,3.3,2.3l-1,0.3c-0.3-0.7-1-1.6-2.3-1.6c-1.6,0-2.6,1.1-2.6,3.1c0,2,1.1,3.2,2.7,3.2c1.2,0,2.1-0.7,2.4-1.2v-1.1
						h-2.1v-0.9h3v4H708.4z"/>
					<path class="st2" d="M711.1,371.5h5v1h-3.9v2.3h3v1h-3v2.6h4v1h-5V371.5z"/>
					<path class="st2" d="M720.5,378.1l2.5-2.2c0.9-0.8,1.5-1.5,1.5-2.3s-0.5-1.4-1.6-1.4c-1.1,0-1.5,0.7-1.6,1.4l-1-0.3
						c0.2-1.5,1.3-2,2.6-2c1.6,0,2.5,0.9,2.5,2.3c0,1.2-0.7,1.9-1.9,2.9l-2,1.8l0,0c0.1,0,0.5,0,1.1,0h2.9v1h-5.1V378.1z"/>
				</g>
				<path class="st2" d="M705.2,336.9c17.7-1.2,35.5-11.9,35.5-24.9c0-13.8-20.1-25-38.8-25S673,298.2,673,312c0,1.3,0.1,2.7,0.3,4
					c0.1,0.4,0.2,0.8,0.4,1.1c0.4,0.2,0.8,0.2,1.2,0.1c3.8-0.2,6.4-0.7,9.1-2.2c2.4-1.3,24.8-14.6,24.8-14.6l-2.5-0.9l11.9-1.4
					c0,0-24.8,19-30.9,23.8c-2.6,1.9-5.5,3.3-8.5,4.4c-0.4,0.2-0.5,0.3-0.6,0.5c-0.1,0.3,0,0.7,0.2,0.9c1.6,1.8,3.3,3.3,5.3,4.6
					c0.4,0.3,0.9,0.5,1.2,0.3s0.3-0.7,0.4-1.2c0.6-3.4,2.4-6.4,5.1-8.5c4.3-3.5,30.3-24.5,30.3-24.5l4.9,7.5l-4.2-1.5
					c0,0-13.6,16.4-15.8,19c-4.2,5-3.6,9.5-2.6,12.3c0.1,0.4,0.4,0.7,0.7,1C704.2,336.8,704.7,336.9,705.2,336.9z"/>
				<path class="st2" d="M668.8,346.5c-0.8-0.2-1.7-0.3-2.5-0.3h-4.4c-0.1,0-0.1,0-0.1,0.1l-1.8,8.9v0.1h4.2
					c1.2,0.1,2.5-0.2,3.6-0.7c0.9-0.5,1.6-1.2,2.2-2.1c0.5-0.9,0.8-1.9,0.8-3c0-0.6-0.1-1.3-0.5-1.8
					C670,347.1,669.4,346.7,668.8,346.5z M663.9,347.5h0.6c1-0.1,2,0.1,2.9,0.5c0.5,0.3,0.8,0.9,0.8,1.5c0,0.8-0.2,1.5-0.5,2.2
					c-0.4,0.6-0.9,1.2-1.5,1.6c-0.7,0.4-1.6,0.6-2.4,0.5h-1.2L663.9,347.5z"/>
				<path class="st2" d="M681.9,346.3c-1-0.2-2.1-0.3-3.1-0.3c-1.2,0-2.5,0.3-3.6,0.8c-1,0.6-1.8,1.3-2.4,2.3
					c-0.6,0.9-0.9,1.9-0.8,3c0,1,0.4,1.9,1.2,2.5c0.9,0.7,2.1,1,3.2,0.9c1.3,0,2.7-0.2,4-0.5c0.1,0,0.1,0,0.1-0.1l0.8-3.7v-0.1h-2.2
					c-0.1,0-0.1,0-0.1,0.1l-0.6,2.8c-0.4,0.1-0.8,0.2-1.2,0.2c-0.7,0-1.4-0.2-2-0.6c-0.5-0.4-0.7-1-0.7-1.6c0-0.8,0.2-1.5,0.5-2.2
					c0.4-0.7,0.9-1.3,1.5-1.7c0.7-0.4,1.4-0.6,2.2-0.6h0.8c0.3,0,0.6,0.1,0.9,0.2c0.4,0.1,0.9,0.2,1.3,0.3h0.1v-0.1L681.9,346.3
					L681.9,346.3z"/>
				<path class="st2" d="M696.3,346.2h-1.9l-4.1,6.6l-1.6-6.6c0-0.1,0-0.1-0.1-0.1h-2.4v0.1l2.2,8.9c0,0.1,0,0.1,0.1,0.1h2.3
					L696.3,346.2z"/>
				<path class="st2" d="M702.3,353.1c-0.6,0.3-1.2,0.5-1.9,0.7c-0.5,0.2-1,0.2-1.5,0.2c-0.4,0-0.7-0.1-1-0.3
					c-0.3-0.1-0.4-0.4-0.5-0.9c0.9-0.1,1.8-0.2,2.6-0.5c0.6-0.2,1.2-0.6,1.7-1.1c0.4-0.4,0.6-0.9,0.5-1.4c0-0.4-0.2-0.9-0.6-1.1
					c-0.4-0.3-1-0.4-1.5-0.4c-0.8,0-1.7,0.2-2.4,0.6c-0.8,0.4-1.4,1-1.8,1.8c-0.4,0.7-0.7,1.5-0.7,2.3c0,0.4,0.1,0.8,0.4,1.1
					c0.2,0.4,0.6,0.7,1.1,0.9c0.5,0.2,1.1,0.3,1.6,0.3c0.6,0,1.1-0.1,1.7-0.2c0.7-0.1,1.4-0.3,2.1-0.6l0.1-0.1l0.3-1.4
					C702.5,353.1,702.5,353.1,702.3,353.1C702.4,353.1,702.4,353,702.3,353.1z M699.6,349.7c0.2,0,0.4,0.1,0.5,0.2
					c0.1,0.1,0.2,0.2,0.2,0.4c0,0.3-0.2,0.6-0.6,1c-0.6,0.4-1.2,0.5-1.9,0.5c0.2-0.5,0.4-1,0.8-1.4
					C698.9,349.8,699.2,349.7,699.6,349.7z"/>
				<path class="st2" d="M710.3,348.3c-0.7,0-1.4,0.3-2,0.8c-0.6,0.5-1.1,1-1.5,1.7l0.5-2.3v-0.1h-2.2c-0.1,0-0.1,0-0.1,0.1
					l-1.3,6.6v0.1h2.2c0.1,0,0.1,0,0.1-0.1l0.4-2.2c0.5-0.7,1-1.3,1.6-1.9c0.6-0.6,1-1,1.3-1c0.1,0,0.2,0,0.2,0.3v0.2l-0.9,4.5v0.1
					h2.2c0.1,0,0.1,0,0.1-0.1l0.9-4.7c0.1-0.3,0.1-0.5,0.1-0.8c0-0.4-0.2-0.8-0.5-1.1C711.1,348.4,710.7,348.3,710.3,348.3z"/>
				<path class="st2" d="M718.7,348.5h-1.5l0.3-1.3v-0.1h-0.1l-2.1,0.2c-0.1,0-0.1,0-0.1,0.1l-0.2,1h-1.1c-0.1,0-0.1,0-0.1,0.1
					l-0.3,1.1v0.1h1.2l-0.7,3.2c-0.1,0.3-0.1,0.6-0.1,0.9c0,0.4,0.2,0.8,0.5,1c0.5,0.3,1.1,0.5,1.7,0.4c0.5,0,0.9-0.1,1.4-0.2
					c0.1,0,0.1,0,0.1-0.1l0.2-1.2v-0.1h-0.1c-0.3,0.1-0.5,0.1-0.8,0.1c-0.2,0-0.3,0-0.5-0.1c-0.1-0.1-0.2-0.2-0.2-0.4
					c0-0.2,0-0.4,0.1-0.6l0.6-3.2h1.5c0.1,0,0.1,0,0.1-0.1l0.2-1.1C718.8,348.5,718.8,348.5,718.7,348.5L718.7,348.5z"/>
				<path class="st2" d="M727.3,348.5h-2.1c-0.1,0-0.1,0-0.1,0.1l-0.4,2.2c-0.4,0.7-0.9,1.3-1.4,1.9c-0.6,0.8-1,0.9-1.2,0.9
					s-0.2,0-0.2-0.2v-0.2l1-4.5v-0.1h-2.2c-0.1,0-0.1,0-0.1,0.1l-1,4.7c-0.1,0.3-0.1,0.5-0.1,0.8c0,0.4,0.1,0.8,0.4,1.1
					c0.3,0.2,0.6,0.4,1,0.4c0.7,0,1.4-0.3,1.9-0.8c0.6-0.5,1-1.1,1.4-1.7l-0.5,2.3v0.1h2.2c0.1,0,0.1,0,0.1-0.1l1.3-6.6
					C727.4,348.5,727.4,348.5,727.3,348.5L727.3,348.5z"/>
				<path class="st2" d="M735.3,348.4L735.3,348.4c-0.2-0.1-0.5-0.1-0.7-0.1c-0.7,0.1-1.4,0.3-1.9,0.8c-0.6,0.4-1.1,1-1.5,1.7
					l0.5-2.3v-0.1h-2.2c-0.1,0-0.1,0-0.1,0.1l-1.3,6.6v0.1h2.2c0.1,0,0.1,0,0.1-0.1l0.4-2.2c0.5-0.7,1.1-1.4,1.7-2
					c0.4-0.5,1-0.8,1.6-0.9c0.2,0,0.4,0,0.6,0.1h0.1V350L735.3,348.4L735.3,348.4z"/>
				<path class="st2" d="M742.3,353.1c-0.6,0.3-1.2,0.5-1.9,0.7c-0.5,0.2-1,0.2-1.5,0.2c-0.4,0-0.7-0.1-1-0.3
					c-0.3-0.1-0.4-0.4-0.5-0.9c0.9-0.1,1.8-0.2,2.6-0.5c0.6-0.2,1.2-0.6,1.7-1.1c0.4-0.4,0.6-0.9,0.5-1.4c0-0.4-0.2-0.9-0.6-1.1
					c-0.4-0.3-1-0.4-1.5-0.4c-0.8,0-1.7,0.2-2.4,0.6c-0.8,0.4-1.4,1-1.8,1.8c-0.4,0.7-0.7,1.5-0.7,2.3c0,0.4,0.1,0.8,0.4,1.1
					c0.2,0.4,0.6,0.7,1.1,0.9c0.5,0.2,1.1,0.3,1.6,0.3c0.6,0,1.1-0.1,1.7-0.2c0.7-0.1,1.4-0.3,2.1-0.6l0.1-0.1l0.3-1.4
					C742.4,353.1,742.4,353.1,742.3,353.1L742.3,353.1z M739.5,349.7c0.2,0,0.4,0.1,0.5,0.2c0.1,0.1,0.2,0.2,0.2,0.4
					c0,0.3-0.2,0.6-0.6,1c-0.6,0.4-1.2,0.5-1.9,0.5c0.2-0.5,0.4-1,0.8-1.4C738.7,350,739.1,349.7,739.5,349.7z"/>
				<path class="st2" d="M750.1,348.6c-0.7-0.2-1.5-0.3-2.3-0.3c-0.8-0.1-1.7,0.1-2.4,0.6c-0.5,0.3-0.8,0.8-0.8,1.4
					c0,0.3,0.1,0.5,0.2,0.8c0.3,0.4,0.7,0.8,1.1,1.1l0.5,0.4c0.4,0.3,0.6,0.5,0.6,0.6c0.1,0.1,0.1,0.2,0.1,0.3
					c0,0.2-0.1,0.3-0.3,0.5c-0.2,0.1-0.5,0.2-0.7,0.2c-0.9,0-1.7-0.2-2.5-0.6h-0.1v0.1l-0.3,1.3c0,0.1,0,0.1,0.1,0.1
					c0.9,0.3,1.9,0.4,2.8,0.4c0.8,0,1.7-0.2,2.4-0.6c0.6-0.3,0.9-0.9,0.8-1.5c0-0.3-0.1-0.6-0.3-0.9c-0.2-0.3-0.6-0.7-0.9-0.9
					l-0.6-0.5c-0.2-0.1-0.4-0.3-0.6-0.5c-0.1-0.1-0.1-0.2-0.1-0.3c0-0.2,0.1-0.3,0.2-0.4c0.2-0.1,0.5-0.2,0.8-0.2
					c0.7,0,1.3,0.1,1.9,0.4h0.1V350L750.1,348.6z"/>
			</g>
		</g>
	</g>
</g>
</svg>
